<svg xmlns="http://www.w3.org/2000/svg" 
xmlnsXlink="http://www.w3.org/1999/xlink" version="1.1" x="0px" y="0px" 
viewBox="0 0 100 125" enable-background="new 0 0 100 100" 
xmlSpace="preserve">
<g>
<path d="M26.076,5.03C14.51,5.03,5.1,14.44,5.1,26.007c0,11.567,9.41,20.977,20.976,20.977c11.567,0,20.978-9.41,20.978-20.977   C47.053,14.44,37.643,5.03,26.076,5.03z M26.076,42.681c-9.194,0-16.673-7.48-16.673-16.674c0-9.194,7.479-16.673,16.673-16.673   c9.194,0,16.674,7.479,16.674,16.673C42.75,35.201,35.27,42.681,26.076,42.681z"/>
<path d="M74.129,46.984c5.604,0,10.871-2.182,14.832-6.144c3.962-3.962,6.145-9.23,6.145-14.833c0-5.603-2.183-10.87-6.144-14.833   C85,7.212,79.731,5.03,74.129,5.03s-10.871,2.183-14.833,6.144c-8.179,8.179-8.179,21.487,0,29.666   C63.258,44.802,68.526,46.984,74.129,46.984z M57.812,29.394L77.524,9.68c1.191,0.245,2.346,0.621,3.447,1.117L58.924,32.844   C58.425,31.73,58.054,30.573,57.812,29.394z M84.723,13.131c0.414,0.341,0.813,0.702,1.197,1.086   c0.383,0.383,0.745,0.783,1.085,1.196L63.534,38.884c-0.412-0.341-0.813-0.703-1.195-1.086c-0.386-0.385-0.746-0.786-1.085-1.197   L84.723,13.131z M90.456,22.611L70.732,42.334c-1.191-0.245-2.345-0.622-3.447-1.117l22.054-22.053   C89.834,20.266,90.21,21.42,90.456,22.611z M85.919,37.797c-2.544,2.544-5.766,4.164-9.257,4.692l13.949-13.949   C90.082,32.032,88.463,35.254,85.919,37.797z M62.339,14.217c2.543-2.544,5.765-4.164,9.256-4.692L57.659,23.46   C58.179,20.075,59.736,16.819,62.339,14.217z"/>
<path d="M26.076,53.082C14.51,53.082,5.1,62.492,5.1,74.059s9.41,20.977,20.976,20.977c11.567,0,20.978-9.41,20.978-20.977   S37.643,53.082,26.076,53.082z M26.076,90.732c-9.194,0-16.673-7.48-16.673-16.674s7.479-16.674,16.673-16.674   c9.194,0,16.674,7.48,16.674,16.674S35.27,90.732,26.076,90.732z"/>
<path d="M74.129,53.082c-11.567,0-20.977,9.41-20.977,20.977s9.409,20.977,20.977,20.977c11.565,0,20.977-9.41,20.977-20.977   S85.694,53.082,74.129,53.082z M74.129,90.732c-9.194,0-16.674-7.48-16.674-16.674s7.479-16.674,16.674-16.674   c9.193,0,16.674,7.48,16.674,16.674S83.322,90.732,74.129,90.732z"/>
</g>
</svg>