<svg width="100pt" height="100pt" xmlns="http://www.w3.org/2000/svg" xmlnsXlink="http://www.w3.org/1999/xlink" version="1.1" x="0px" y="0px" 
viewBox="0 0 500 500" style="enable-backgroundNew 0 0 512 512;" xmlSpace="preserve"><path d="M200.3,295.5c-37.6-37.6-98.5-37.6-136.1,0c-37.6,37.6-37.6,98.5,0,136.1c37.6,37.6,98.5,37.6,136.1,0  C237.9,394,237.9,333.1,200.3,295.5L200.3,295.5z M233,397.2c-9.2,27.6-29.5,50.3-55.7,62.6H476v-62.6H233z M150.2,345.5  c-16-16-43.4-4.6-43.4,18c0,22.6,27.4,34,43.4,18C160.2,371.6,160.2,355.5,150.2,345.5L150.2,345.5z M132.2,328.1  c19.6,0,35.4,15.9,35.4,35.4c0,19.6-15.8,35.4-35.4,35.4c-19.6,0-35.4-15.8-35.4-35.4C96.8,344,112.7,328.1,132.2,328.1L132.2,328.1  z M156.1,322.1c-4-2.3-8.3-4-12.9-5.1c-2.4-0.4-4.3-2.4-4.3-4.9v-12.3l-1.3-6.9h-10.9l-1.3,6.9V312l0,0c0,2.3-1.6,4.3-3.9,4.8  c-9.4,2.1-17.9,7.1-24.4,14.1c-1.6,1.7-4.1,2.1-6.2,0.9l-10.6-6.1l-6.7-2.3l-5.4,9.4l5.4,4.7l10.3,6c2.1,1.1,3.2,3.5,2.5,5.9  c-2.8,9.1-2.8,19.1,0,28.2l0,0c0.7,2.2-0.2,4.6-2.3,5.8l-10.5,6.1l-5.4,4.7l5.4,9.4l6.7-2.4l10.3-5.9c2-1.4,4.7-1.1,6.4,0.7  c3.2,3.5,7,6.5,11.2,8.9c4,2.3,8.3,4,12.9,5.1c2.4,0.4,4.3,2.4,4.3,5v12.3l1.3,6.9h10.9l1.3-6.9V415h0c0-2.3,1.6-4.4,3.9-4.9  c9.4-2.1,17.9-7.1,24.4-14.1l0,0c1.5-1.6,4.1-2.1,6.1-0.9l10.6,6.1l6.7,2.4l5.4-9.4l-5.4-4.7l-10.3-6c-2.1-1-3.2-3.5-2.5-5.9  c2.8-9.1,2.8-19.1,0-28.2l0,0c-0.7-2.2,0.2-4.6,2.3-5.8l10.5-6.1l5.4-4.7l-5.4-9.4l-6.7,2.4l-10.3,5.9c-2,1.4-4.7,1.1-6.4-0.7  C164,327.5,160.3,324.5,156.1,322.1L156.1,322.1z M149,308.2c8.6,2.6,16.3,7.1,22.8,13.2l8.5-4.8l0,0l11.1-3.9  c2.4-0.8,5,0.3,6.1,2.5l9.5,16.4c1.2,2.1,0.7,4.7-1.1,6.3l0,0c-10.4,9-6.4,6.3-17.3,12.6c2,8.6,2,17.7,0,26.4l8.4,5l0,0l8.9,7.6  c1.9,1.6,2.3,4.5,0.9,6.5l-9.4,16.3c-1.2,2.1-3.7,3-6,2.2l0,0c-12.8-4.5-9.1-2.6-19.6-8.7c-6.5,6.1-14.3,10.6-22.8,13.2  c0,1.9,0.2,8.7-0.2,10.1l-2.1,11.1c-0.5,2.4-2.6,4.1-4.9,4.1l0,0h-19.2c-2.6,0-4.7-1.9-5-4.4l-2.2-12.1h0v-8.8  c-8.5-2.6-16.3-7.1-22.8-13.2l-8.5,4.8l0,0l-11,3.9c-2.3,0.8-4.8-0.2-6-2.2l0,0l-9.6-16.6c-1.2-2.2-0.7-4.8,1.2-6.4  c11.5-9.6,5.2-5.6,17.2-12.5c-2-8.6-2-17.7,0-26.4l-8.4-5v0l-8.9-7.7c-1.9-1.6-2.3-4.2-1.1-6.3l9.6-16.6c1.2-2.2,3.9-3,6.2-2.1  l11.7,4.2l0,0l7.7,4.4c6.5-6.1,14.2-10.6,22.8-13.2c0-1.9-0.1-8.7,0.2-10.1l2.1-11.1c0.5-2.4,2.6-4.1,4.9-4.1l0,0h19.2  c2.6,0,4.7,1.9,5,4.4l2.2,12.1l0,0V308.2z M180.2,173.2c-6.5-3.4-12-6.6-15.8-13c-2.7-4.5-3.7-9.7-2.2-15.4c1.2-4.8,2.4-8,6-11.9  c-18.6-9-40.8,4.5-40.8,25.7c0,22.8,25.6,36.3,44.3,23.6C175.2,179.8,178,176.8,180.2,173.2L180.2,173.2z M224.2,196.5L189,177.9  c-12.7,21.7-42.5,25.7-60.4,7.9c-15-15-15-39.4,0-54.4c13.1-13.1,33.6-15,48.8-4.6c4.3-1.5,9-1.4,13.3,0.4c6.5,2.8,13.2,6,19.6,9.1  l10.1-5.8l6.3-5.4l-6.4-11.1l-7.8,2.7l-11.6,6.7c-2,1.2-4.6,0.9-6.3-0.9c-3.6-3.9-7.8-7.2-12.4-9.9c-4.4-2.6-9.2-4.5-14.3-5.7  c-2.4-0.4-4.3-2.4-4.3-5V88.4l-1.5-8h-12.8l-1.5,8v13.5h0c0,2.3-1.6,4.4-3.9,4.9c-10.4,2.4-19.9,7.9-27.1,15.6  c-1.6,1.7-4.1,2.1-6.2,0.9l-11.7-6.8l-7.8-2.7L84.9,125l6.3,5.4l11.4,6.6c2.1,1.1,3.2,3.6,2.5,5.9c-3.1,10.1-3.1,21.2,0,31.3l0,0  c0.7,2.2-0.2,4.6-2.3,5.8l-11.6,6.7l-6.3,5.4l6.4,11.1l7.9-2.7l11.4-6.5c2-1.4,4.7-1.1,6.4,0.7c3.6,3.9,7.8,7.2,12.4,9.9  c4.4,2.6,9.2,4.5,14.3,5.7c2.4,0.4,4.3,2.4,4.3,5v13.5l1.5,8.1h12.8l1.5-8.1v-13.5h0c0-2.3,1.6-4.3,3.9-4.9  c10.4-2.4,19.9-7.9,27.1-15.6c1.6-1.7,4.1-2.1,6.2-0.9l11.7,6.7l7.8,2.7L224.2,196.5z M261.3,145.4c-4.7-8.1-7.3-17.4-7.1-27.3  c-8-19.5-21.6-36.1-38.8-47.7c-42.1-28.5-98.7-23-134.7,12.9c-36.5,36.5-41.6,94-11.9,136.2c12.2,17.4,29.6,31,49.9,38.6  c4.5-0.6,9-0.9,13.6-0.9c13.1,0,25.6,2.4,37.2,6.7c19.1-2.4,36.6-9.9,51.2-21.1c13.3-10.2,24-23.4,31.3-38.7l-12.3-0.3  c-2.1,0-4.3-1.5-6.5-2.7l-6.1,10.6c-1.2,2.1-3.7,3-6,2.2l0,0l-13-4.6v0l-8.8-5.1c-7.2,6.8-15.9,11.9-25.5,14.7  c0,2.1,0.2,9.9-0.2,11.4l-2.3,12.2c-0.5,2.4-2.6,4.1-4.9,4.1l0,0h-21.1c-2.6,0-4.7-1.9-5-4.4l-2.4-13.2l0,0V219  c-9.6-2.8-18.3-7.9-25.5-14.7l-9.6,5.4l0,0l-12.1,4.3c-2.4,0.9-5-0.3-6.1-2.4l-10.4-18c-1.2-2.1-0.7-4.7,1.1-6.2v0  c11.5-9.8,7.5-7.2,19.2-13.9c-2.3-9.7-2.3-19.8,0-29.5l-9.5-5.6l0,0l-9.8-8.4c-1.8-1.6-2.3-4.3-1.1-6.3l10.5-18.2  c1.2-2.2,3.9-3,6.2-2.2l12.8,4.6l0,0l8.8,5c7.2-6.8,15.9-11.9,25.5-14.7c0-2.1-0.2-9.9,0.2-11.4l2.3-12.3c0.4-2.4,2.5-4.1,4.9-4.1  l0,0h21.1c2.6,0,4.7,1.9,5,4.4l2.4,13.2h0v10.1c9.6,2.8,18.3,7.9,25.5,14.7l9.8-5.5l12-4.2c2.4-0.8,5,0.3,6.1,2.4l10.4,18  c1.2,2.1,0.7,4.7-1.1,6.3h0c-1.8,1.5-9.5,8.4-10.8,9.1l-4.5,2.6c9.1,4.5,19.7,9.7,21.5,9.9c4.4,0.6,15.7,0.9,19.3,0.9L261.3,145.4z   M310.3,76.1c-0.1,0-0.3,0-0.5,0c-11.7-0.8-22.7,3.2-30.9,10.4c-17.8,15.5-19.8,42.7-4.3,60.5c15.4,17.8,42.7,19.8,60.5,4.3  c17.7-15.4,19.8-42.6,4.3-60.5C332.3,82.5,322.1,77,310.3,76.1L310.3,76.1z M308.1,195.5c0.1,0,0.2,0,0.3,0h48.2c6.6,0,6.6,10,0,10  h-40.3c4.2,8.6,7.9,15.8,11.1,22.1c11.5,22.6,16.7,32.9,16.2,43.6c-0.5,9-4.8,16.7-12.9,30.8c-6,10.5-14.1,24.6-24.2,45.6l19.2,39.6  h30.2l10.6-2.1L345,340.6c-1-2-0.5-4.3,1-5.8l39.2-42.9c2.5-2.7,6.9-1.9,8.3,1.4l0,0l38.8,93.9h41.9  c-14.5-40.2-27.4-75.3-40.9-110.2c-14-35.9-28.7-71.3-46.6-111.3L353.6,144c-3.1,5.7-7.1,10.7-11.9,14.8  c-10.2,8.9-23.8,13.8-38.4,12.8c-16.7-1.1-26.8-9.8-27.4-10c-4.5,0.4-9.3,0.7-14.6,0.7c-3.1,0-16.6-0.4-20.4-1v0  c-3.2-0.6-11.7-4.7-22.6-10.1c-6.7-3.3-29.9-14.6-32.8-15.3c-5.8-1.5-11.8,4.1-13.3,9.6c-0.9,3.6-1.4,6.1,0.7,9.6  c3.5,5.9,10.5,8.4,16.4,11.7l51.3,27.1L308.1,195.5z"/></svg>