<svg xmlns="http://www.w3.org/2000/svg" data-name="Layer 1" 
viewBox="0 0 100 100" x="0px" y="0px"><title>a</title><path d="M99.083,54.147a15.787,15.787,0,0,0-2.5-8.567,13.85,13.85,0,0,0,1.07-6.05,1.306,1.306,0,0,0-2.222-.946l-2.811,2.763a15.878,15.878,0,0,0-16.822-1.282,30.177,30.177,0,0,0-9.228-3.245V15.551A5.058,5.058,0,0,0,61.512,10.5h-11.4A7.817,7.817,0,0,0,42.05,3.163H25.433A7.816,7.816,0,0,0,17.374,10.5H5.97A5.059,5.059,0,0,0,.917,15.551v75.8A5.059,5.059,0,0,0,5.97,96.408H55.952a1.382,1.382,0,0,0,.158-.01,30.412,30.412,0,0,0,5.145.439A30.244,30.244,0,0,0,91.479,67.709,15.911,15.911,0,0,0,99.083,54.147ZM93.94,44.92a.8.8,0,0,1-.056.074L80.418,61.332a1.185,1.185,0,0,1-1.731.107L74.54,57.51a1.188,1.188,0,0,1-.046-1.677l.133-.14a1.176,1.176,0,0,1,.83-.368h.033a1.174,1.174,0,0,1,.815.324l2.311,2.19a1.308,1.308,0,0,0,1.851-.054L90.632,46.969c.023-.023.043-.047.067-.073l4.049-3.981A5.51,5.51,0,0,1,93.94,44.92ZM63.953,15.551V36.47c-.9-.08-1.8-.123-2.7-.123l-.267,0V17.125a1.307,1.307,0,0,0-1.306-1.307H50.113V13.111h11.4A2.444,2.444,0,0,1,63.953,15.551Zm-5.578,2.88V36.485A30.23,30.23,0,0,0,40.4,88.475H9.107V18.431ZM25.433,5.776H42.05a5.2,5.2,0,0,1,5.45,4.881V15.54H19.982V10.657A5.2,5.2,0,0,1,25.433,5.776ZM5.97,93.8a2.443,2.443,0,0,1-2.44-2.44v-75.8a2.443,2.443,0,0,1,2.44-2.44h11.4v2.707H7.8A1.307,1.307,0,0,0,6.5,17.125V89.781A1.307,1.307,0,0,0,7.8,91.088H43.537A30.239,30.239,0,0,0,48.044,93.8Zm55.285.429A27.632,27.632,0,1,1,73.278,41.709a16.191,16.191,0,0,0-2.014,1.913A25.037,25.037,0,0,0,43.678,48.76a1.217,1.217,0,0,0-.255.255,25.005,25.005,0,0,0,0,35.154,1.37,1.37,0,0,0,.118.138,1.409,1.409,0,0,0,.138.118,25.028,25.028,0,0,0,34.357.768q.471-.425.916-.87l.018-.016.02-.023a24.974,24.974,0,0,0,7.115-14.505,15.782,15.782,0,0,0,2.676-.747A27.5,27.5,0,0,1,61.255,94.224Zm16.778-12.7-1.494-1.494a1.307,1.307,0,0,0-1.848,1.848l1.493,1.493a22.391,22.391,0,0,1-13.622,5.625V86.9a1.307,1.307,0,0,0-2.613,0v2.093a22.344,22.344,0,0,1-13.6-5.644l1.472-1.473a1.307,1.307,0,1,0-1.848-1.848L44.5,81.5a22.353,22.353,0,0,1-5.645-13.6h2.093a1.306,1.306,0,1,0,0-2.612H38.855a22.356,22.356,0,0,1,5.645-13.6l1.472,1.473a1.307,1.307,0,0,0,1.848-1.848l-1.473-1.472a22.344,22.344,0,0,1,13.6-5.645v2.093a1.307,1.307,0,0,0,2.613,0V44.191a22.181,22.181,0,0,1,7.095,1.589A15.9,15.9,0,0,0,83.176,70.054c.085,0,.169,0,.254-.006A22.314,22.314,0,0,1,78.033,81.521Zm5.143-14.08a13.294,13.294,0,1,1,7.548-24.234l-1.88,1.848a1.8,1.8,0,0,0-.124.135l-9.259,9.849L78.1,53.751a3.8,3.8,0,0,0-5.371.145l-.133.14a3.8,3.8,0,0,0,.145,5.371l4.147,3.928a3.7,3.7,0,0,0,2.594,1.042c.083,0,.168,0,.252-.008a3.712,3.712,0,0,0,2.7-1.375L94.9,47.872A13.3,13.3,0,0,1,83.176,67.441ZM62.562,51.106,62.491,66.6a1.306,1.306,0,0,1-1.306,1.3H50.017a1.306,1.306,0,1,1,0-2.612h9.867l.065-14.192a1.306,1.306,0,0,1,1.306-1.3h.006A1.306,1.306,0,0,1,62.562,51.106ZM37.129,10.658A1.867,1.867,0,0,1,39,8.791h.1a1.867,1.867,0,0,1,0,3.733H39A1.867,1.867,0,0,1,37.129,10.658Zm-10.612,0a1.866,1.866,0,0,1,1.866-1.867h.1a1.867,1.867,0,0,1,0,3.733h-.1A1.866,1.866,0,0,1,26.517,10.658ZM14.6,50.57A1.306,1.306,0,0,1,15.9,49.264H32.465a1.306,1.306,0,0,1,0,2.612H15.9A1.306,1.306,0,0,1,14.6,50.57Zm0,6.985A1.306,1.306,0,0,1,15.9,56.249H28.585a1.307,1.307,0,1,1,0,2.613H15.9A1.307,1.307,0,0,1,14.6,57.555Zm0,14.788A1.306,1.306,0,0,1,15.9,71.037H26.048a1.307,1.307,0,0,1,0,2.613H15.9A1.307,1.307,0,0,1,14.6,72.343Zm0,7.1A1.306,1.306,0,0,1,15.9,78.133H29.361a1.306,1.306,0,1,1,0,2.612H15.9A1.306,1.306,0,0,1,14.6,79.439Zm0-50.753A1.306,1.306,0,0,1,15.9,27.38H33.85a1.307,1.307,0,1,1,0,2.613H15.9A1.307,1.307,0,0,1,14.6,28.686Zm0,7.1A1.306,1.306,0,0,1,15.9,34.476h24.4a1.307,1.307,0,0,1,0,2.613H15.9A1.307,1.307,0,0,1,14.6,35.782Z"/></svg>