<svg xmlns="http://www.w3.org/2000/svg" 
xmlns:xlink="http://www.w3.org/1999/xlink" 
version="1.1" x="0px" y="0px" viewBox="0 0 100 100" 
enable-background="new 0 0 100 100" xml:space="preserve">
<g><circle cx="50" cy="12.5" r="7.5"/><path d="M59.375,21.25c-0.211,0-18.75,0-18.75,0c-3.797,0-6.875,3.078-6.875,6.875v27.5c0,1.727,1.398,3.125,3.125,3.125   S40,57.352,40,55.625v-27.5c0-0.345,0.28-0.625,0.625-0.625s0.625,0.28,0.625,0.625V62.5v28.75c0,2.071,1.679,3.75,3.75,3.75   s3.75-1.679,3.75-3.75v-30c0-0.69,0.56-1.25,1.25-1.25s1.25,0.56,1.25,1.25v30c0,2.071,1.679,3.75,3.75,3.75s3.75-1.679,3.75-3.75   V28.125c0-0.345,0.28-0.625,0.625-0.625S60,27.78,60,28.125v27.5c0,1.727,1.398,3.125,3.125,3.125s3.125-1.398,3.125-3.125v-27.5   C66.25,24.328,63.172,21.25,59.375,21.25z"/></g></svg>