<svg xmlns="http://www.w3.org/2000/svg" data-name="Layer 1" 
viewBox="0 0 60.12 115.6625" x="0px" y="0px"><title>i-halfblack</title><path d="M25.41,19.68c0.4,9.38,4.81,19.48,13.48,19.48S52.07,28.84,52.39,19.38V19.32c0-.35,0-0.7,0-1.05h0a16.61,16.61,0,0,0-2-8.3,12.37,12.37,0,0,0-.73-1.13,11.86,11.86,0,0,0-.83-1,13.17,13.17,0,0,0-10-4.08q-0.7,0-1.38.06l-0.68.07q-0.67.08-1.32,0.22l-0.64.15c-5.5,1.46-9.5,6.11-9.5,14,0,0.4,0,.8,0,1.2v0.22Zm2-1.77a7,7,0,0,1,1.61-3.14s5.79-.42,10-0.42,9.81,0.42,9.81.42a6.67,6.67,0,0,1,1.51,3.65c0.24,1.39.37,2.68,0.43,3.6a26.5,26.5,0,0,1-2.94,9.65c-2.81,5-6.41,6.07-8.95,6.07-4.59,0-7.4-3.3-8.95-6.07A26.53,26.53,0,0,1,27,22,18.8,18.8,0,0,1,27.46,17.91Z" transform="translate(-3.21 -3.73)"/><path d="M63.3,55.73C62.87,43.94,58.77,42,55.94,40.9c-1.93-.73-5.94-2-8.21-1.7S43,42.26,38.9,42.26s-7-2.68-9.11-3-7.26.91-9.07,1.66S15.64,43,11,49.09,4.1,62.27,5,62.72L5.48,62.9c-2.08,7.24-3.37,14.79-1,17.72a6.28,6.28,0,0,0,1.41,1.29l0,0,0,0,0.2,0.12,0.12,0.07a5.36,5.36,0,0,0,1.9.62,8.78,8.78,0,0,0,1.36.12,9.27,9.27,0,0,0,4-1,44.75,44.75,0,0,0,4.79-3.2h0a85.56,85.56,0,0,0,1.55,13.6c0.32,3.76,3.44,4,7.69,4H51.81c4.25,0,6.88-.86,7.69-4S63.73,67.53,63.3,55.73ZM16.54,65.52l-0.12.21Zm0.79-.09c0.6-.57,1.8-4.58,2.14-4.31s-0.25,2.17-.65,5.94c2.95-1.77,6.53-4,7.05-4.35-0.89.56-10.41,6.54-11,6.54h0c-0.48,0,1.09-2.73,1.57-3.52A1.52,1.52,0,0,0,17.33,65.43Zm19.6-.14C36.7,66.63,33,68.09,33,68.09a6.44,6.44,0,0,1-3.67.38A2,2,0,0,1,29,68.33c0,0.15.07,0.3,0.08,0.42-5.56,4.34-14.38,11-16.14,11.84a8.07,8.07,0,0,1-3.4.88,7.46,7.46,0,0,1-1.15-.1h0A4,4,0,0,1,7,80.9l0,0,0,0-0.05,0-0.09,0,0,0h0a4.85,4.85,0,0,1-1.09-1c-2.2-2.7-.21-11.31,1.11-16l8.07,2c-1.77,3.06-1.51,3.58-1.25,4.09a1.49,1.49,0,0,0,1.19.82h0.14c0.46,0,1,0,11.51-6.6l0.25,0.27,0.19,0.21,0,0.05c-0.3-1-.78-2.63-1-3.26-0.32-1-.79-1.72-0.77-2s0.43-.47,1-0.31a3.15,3.15,0,0,1,1.54,1.47,5.77,5.77,0,0,0,.72,1.08l1.29-1.93a1.62,1.62,0,0,1,.24-0.28l4.37-6.34s0.85-1.06,1.53-.64S36,54,36,54l-2.78,5a6.27,6.27,0,0,1,2.66,2.38A4.76,4.76,0,0,1,36.94,65.29Z" transform="translate(-3.21 -3.73)"/></svg>