<svg xmlnsX="http://ns.adobe.com/Extensibility/1.0/" xmlnsI="http://ns.adobe.com/AdobeIllustrator/10.0/" 
xmlnsGraph="http://ns.adobe.com/Graphs/1.0/" xmlns="http://www.w3.org/2000/svg" xmlnsXlink="http://www.w3.org/1999/xlink" 
version="1.1" x="0px" y="0px" viewBox="0 0 100 100" style="enable-background:new 0 0 100 100;" xmlSpace="preserve"><metadata><sfw xmlns="http://ns.adobe.com/SaveForWeb/1.0/"><slices/><sliceSourceBounds bottomLeftOrigin="true" height="74.4" width="30.7" x="-17.6" y="-41.8"/></sfw></metadata><g><g><g><path d="M34.6,17.4l-0.3,3.3c0,0-1.7,4.6-1.8,6.3c0,1.7-0.2,14.8,0.4,15.4c0.7,1.3,1.6,2.3,3.4,2c0.4-0.1,0.6-0.8,0.6-0.8     c0.1,0.8,0.6,1.4,1.2,2c0.5,0.5,1.2,0.8,1.9,0.9c0.7,0.1,1.3,0.1,1.8-0.2c0.4-0.2,0.9-0.9,0.8-1l-0.1,0c0.2,0.9,0.6,1.5,1.2,2     c0.6,0.5,1.3,0.8,2.1,0.8c0.7,0,1.4-0.1,1.9-0.4c0.6-0.4,0.9-0.8,0.9-1.4c0,0,0.2,12.9,0.2,12.9c0.3,1.9,1.4,2.9,3.2,3.1     c0.7,0.1,1.4-0.2,2.1-0.9c0.6-0.6,1-1.4,0.9-2.4c0.1-10.6,0.2-17.2,0.1-19.9l0.3-5.5c0-1.2-0.1-2.5-0.5-3.9     c-0.3-1.2-0.6-2.2-1-2.8l-2.2-3.7c-1.3-2.2-3.5-5.8-3.5-5.8L34.6,17.4z"/></g></g><path d="M54.9,76.5c0,2.1-1.7,3.9-3.9,3.9c-2.1,0-3.9-1.7-3.9-3.9c0-2.1,1.7-3.9,3.9-3.9C53.1,72.6,54.9,74.3,54.9,76.5z"/><path d="M38.9,87.6c0,2.4,1.9,4.3,4.3,4.3c2.4,0,4.3-1.9,4.3-4.3s-1.9-4.3-4.3-4.3C40.8,83.3,38.9,85.2,38.9,87.6z M40.5,87.6   c0-1.4,1.2-2.6,2.6-2.6c1.4,0,2.6,1.2,2.6,2.6c0,1.4-1.2,2.6-2.6,2.6C41.7,90.2,40.5,89,40.5,87.6z"/><path d="M54.6,87.6c0,2.4,1.9,4.3,4.3,4.3c2.4,0,4.3-1.9,4.3-4.3s-1.9-4.3-4.3-4.3C56.5,83.3,54.6,85.2,54.6,87.6z M56.3,87.6   c0-1.4,1.2-2.6,2.6-2.6c1.4,0,2.6,1.2,2.6,2.6c0,1.4-1.2,2.6-2.6,2.6C57.4,90.2,56.3,89,56.3,87.6z"/></g></svg>