<svg xmlns="http://www.w3.org/2000/svg" xmlnsXlink="http://www.w3.org/1999/xlink" version="1.1" x="0px" y="0px" viewBox="0 0 100 125" enable-background="new 0 0 100 100" xmlSpace="preserve"><g><path d="M33.12,47.119c-0.756-1.974-2.736-3.447-4.859-3.447H9.138c-2.43,0-4.161,1.927-3.936,4.335L5,85.576   c0,0.109,0.005,0.214,0.02,0.324c0.337,2.496,2.641,4.527,5.14,4.527h24.408c2.383,0,4.071-1.859,3.925-4.202l-5.296-39.136   C33.17,47.099,33.145,47.11,33.12,47.119z"/><path d="M94.961,59.889c-0.241-2.841-1.679-4.925-3.552-6.414c1.411-1.004,2.252-2.464,2.432-4.304   c0.241-2.462-0.403-6.325-2.996-9.12c-1.312-1.41-3.663-3.09-7.405-3.09H66.035c-0.034-2.52-0.034-6.47,0.147-9.978   c0.267-5.063-2.566-11.238-5.367-14.476c-1.473-1.707-2.966-2.663-4.442-2.845c-0.474-0.059-0.963-0.089-1.461-0.089   c-3.209,0-7.003,1.282-7.743,4.096c-0.326,1.223-0.023,2.515,0.302,3.877c0.425,1.813,0.963,4.068,0.401,7.217   c-0.95,5.346-9.025,18.268-11.639,20.641l5.447,40.258c3.585,1.391,11.872,4.419,16.226,4.419h21.771   c1.481,0,6.434-0.323,7.924-4.487c0.713-2.006,0.442-3.898-0.252-5.512c-0.008-0.157-0.014-0.291-0.018-0.381   c0-0.034-0.005-0.073-0.006-0.113c2.719-0.726,4.479-2.535,4.946-5.214c0.562-3.235-0.41-5.473-1.386-6.822   C93.762,66.211,95.266,63.522,94.961,59.889z"/></g></svg>