<svg xmlnsDc="http://purl.org/dc/elements/1.1/" xmlnsCc="http://creativecommons.org/ns#" 
xmlnsRdf="http://www.w3.org/1999/02/22-rdf-syntax-ns#" xmlnsSvg="http://www.w3.org/2000/svg" xmlns="http://www.w3.org/2000/svg" 
xmlnsSodipodi="http://sodipodi.sourceforge.net/DTD/sodipodi-0.dtd" xmlnsInkscape="http://www.inkscape.org/namespaces/inkscape" 
viewBox="0 0 250 250" version="1.1" x="0px" y="0px"><g transform="translate(8.3523483,-34.736942)"><path style="color:#000000;font-variant-ligaturesNormal;font-variant-positionNormal;font-variant-capsNormal;font-variant-numericNormal;font-variant-alternatesNormal;font-variant-east-asianNormal;font-feature-settingsNormal;font-variation-settingsNormal;text-indent:0;text-decoration-lineNone;text-decoration-styleSolid;text-decoration-color:#000000;text-transformNone;directionLtr;text-orientationMixed;dominant-baselineAuto;baseline-shiftBaseline;white-spaceNormal;shape-padding:0;shape-margin:0;inline-size:0;isolationAuto;mix-blend-modeNormal;color-interpolationSRGB;color-interpolation-filtersLinearRGB;solid-color:#000000;solid-opacity:1;vector-effectNone;color-renderingAuto;image-renderingAuto;shape-renderingAuto;enable-backgroundAccumulate;" d="m 21.427975,82.756865 c 0.0075,14.153499 0.02349,21.373885 0.03165,33.496455 -10.407368,10.11213 -15.9611788,22.85858 -18.1375895,35.44223 -1.7965757,15.8637 6.0134003,22.67499 18.1380495,24.77882 v 72.08402 c 0,7.18869 3.192128,9.73082 12.119214,9.73082 H 197.49269 c 8.70083,0 11.16102,-2.09523 11.16102,-10.12667 l -0.005,-50.32939 c 9.01962,-7.45018 24.18352,-24.83632 28.97757,-34.67464 5.53012,-11.94877 -13.24501,-42.57098 -28.97757,-57.2891 V 83.260125 c 0,-7.270273 -3.21644,-10.364725 -11.45412,-10.364725 H 33.07589 c -7.583382,0 -11.651906,2.274549 -11.647915,9.861465 z m 10.378505,0.292299 h 165.95766 v 78.812656 c -7.35897,9.06294 -20.70217,21.58594 -30.28817,21.82044 -7.22689,0.30119 -19.53971,0.13678 -25.81341,3.44925 -3.31028,1.74783 -6.69036,1.34021 -10.24275,2.89859 -1.5996,0.72191 -2.94929,2.23334 -3.10648,3.84625 -0.50353,4.69916 1.9484,7.93702 5.15614,7.73143 -10.12393,3.83135 -13.88813,3.82061 -16.43902,8.11384 -2.14888,3.61662 -0.31095,7.97403 2.57945,8.12774 -5.11604,3.99591 -0.7421,11.48765 4.33782,10.28587 -1.66838,3.86107 4.36923,8.5353 7.71404,7.15922 -1.6367,3.05593 4.64486,6.62348 10.56051,4.83354 14.07385,-4.18882 19.09453,-6.88912 29.50529,-14.93376 7.14577,-4.68923 17.49672,-11.56845 26.03658,-18.09726 v 41.03847 H 31.80648 v -70.99847 c 18.235916,0.11854 36.869861,-3.84475 50.045228,-7.91777 10.719712,10.68177 24.192682,18.83731 35.027862,23.46546 21.54847,-9.20423 53.19811,-35.17293 53.19811,-58.84093 0,-34.187145 -42.76057,-34.515835 -53.19811,-12.82014 -10.77423,-21.695695 -53.533939,-21.367005 -53.533939,12.82014 0,1.71728 0.31559,2.73496 0.636175,4.46921 -9.225743,0.11503 -23.932467,-0.885 -32.175326,-1.94538 z m 176.84214,29.579686 c 9.93688,8.33987 30.14371,38.59171 24.47014,49.22603 -15.83449,27.51749 -39.30517,42.57906 -63.85316,59.87689 l -4.30373,3.3512 c -5.12283,3.9891 -15.63716,8.70594 -22.77089,11.05485 -3.71995,1.18595 -7.75991,-1.52432 -3.67034,-3.72249 3.32626,-1.62977 9.36406,-4.60325 12.24584,-6.75944 1.12092,-0.64717 0.43853,-2.12844 -1.2654,-1.28348 -3.65319,2.10917 -12.69906,6.21508 -17.43814,7.27256 -2.91654,0.60529 -5.41913,-3.35938 -1.96415,-4.92254 5.04534,-2.12368 12.54209,-5.41329 16.64137,-7.65286 1.53257,-0.91998 0.73337,-2.88653 -1.31338,-1.81536 -8.49818,4.15707 -13.18167,5.7169 -18.93646,7.21971 -4.37118,1.17126 -6.88094,-3.67242 -2.41885,-5.33622 5.99152,-2.23558 12.67547,-4.75765 18.58187,-7.58126 1.92337,-0.92891 1.53482,-2.88733 -1.02066,-2.07747 -5.74623,1.89249 -9.4398,3.79349 -15.49833,5.41687 -5.02757,1.24566 -6.64143,-4.4077 -1.92313,-5.83959 4.32433,-1.49876 14.6681,-5.36727 24.24833,-8.84874 2.05781,-0.61765 1.86998,-2.56264 -0.0639,-2.10668 -5.61138,1.50356 -14.87316,0.44251 -15.46774,-1.96275 -1.00504,-3.75088 6.36429,-3.28009 9.81726,-4.83841 11.30078,-4.95751 13.79012,-2.41534 25.32461,-3.57926 9.58803,-0.5738 22.17709,-11.77696 29.48096,-19.81736 0,0 6.68382,-8.12126 11.09794,-15.17573 -0.004,-12.72523 0,-40.09845 0,-40.09847 z M 21.459618,124.22532 v 12.3411 c 0.01424,3.28193 2.505663,3.63959 6.107273,4.02562 37.663087,3.02522 44.470945,5.24854 62.402125,-2.11016 10.571134,-4.75926 11.456514,-8.20641 23.722034,-9.56347 3.76951,-0.37694 9.9156,-4.4691 10.92066,-0.71822 0.6877,2.38031 -6.80273,7.93059 -12.4141,9.43417 -1.90283,0.57209 -1.09252,2.35036 0.9984,1.85637 10.03747,-1.77507 20.9297,-3.59667 25.42406,-4.46087 4.80211,-1.1191 6.23109,4.58395 1.25426,6.01897 -6.05853,1.62339 -10.22509,1.52537 -16.14772,2.75954 -2.61804,0.57638 -2.10369,2.33481 0.0264,2.1776 6.5269,-0.50789 13.72213,-1.23611 20.02873,-2.2958 4.69618,-0.79016 4.94479,4.66 0.57359,5.83125 -5.73519,1.57592 -10.43479,2.17943 -19.87299,2.82837 -2.3081,0.0957 -2.16129,2.1277 -0.37405,2.15814 4.66985,-0.11006 12.81482,-0.552 18.24605,-1.2355 3.77369,-0.37377 3.53232,4.77995 0.34624,5.15752 -4.63287,1.45374 -14.51579,2.16162 -18.73412,2.16162 -1.89812,0.12014 -1.33882,2.09137 -0.0445,2.09137 3.57379,0.42643 10.2899,-0.0174 13.98541,-0.26908 4.64075,-0.14111 1.50277,4.32812 -2.31178,5.16103 -7.35246,1.53263 -17.85567,3.54563 -26.0623,2.09971 -5.85121,-1.0309 -8.50918,-2.42261 -14.016728,-4.4706 -4.544917,-1.21781 -9.916063,-2.09336 -14.584736,-0.66051 -27.26208,8.87976 -56.755242,10.66841 -68.966195,2.10529 -9.2321809,-8.15978 1.093335,-33.57565 9.493953,-42.42346 z" clip-rule="nonzero" display="inline" overflow="visible" visibility="visible" fill="#000000" fill-opacity="1" fill-rule="nonzero" stroke="none" stop-color="#000000"/></g></svg>