<svg 
alt="more by Bagus Kusnandar from Noun Project (CC BY 3.0)"
xmlns="http://www.w3.org/2000/svg" viewBox="0 0 32 40" x="0px" y="0px"><defs>
<style>.cls-1{fill:none;}</style></defs><title>More</title><g data-name="Add">
<path class="cls-1" d="M6,7A1,1,0,0,1,7,6H19V4H4V19H6Z"/>
<path class="cls-1" d="M8,20v8H28V8H8Zm6-3h3V14a1,1,0,0,1,2,0v3h3a1,1,0,0,1,0,2H19v3a1,1,0,0,1-2,0V19H14a1,1,0,0,1,0-2Z"/>
<path d="M3,21H6v8a1,1,0,0,0,1,1H29a1,1,0,0,0,1-1V7a1,1,0,0,0-1-1H21V3a1,1,0,0,0-1-1H3A1,1,0,0,0,2,3V20A1,1,0,0,0,3,21ZM28,8V28H8V8H28ZM4,4H19V6H7A1,1,0,0,0,6,7V19H4Z"/>
<path d="M14,19h3v3a1,1,0,0,0,2,0V19h3a1,1,0,0,0,0-2H19V14a1,1,0,0,0-2,0v3H14a1,1,0,0,0,0,2Z"/></g>
</svg>