<svg xmlns="http://www.w3.org/2000/svg" version="1.1" viewBox="0 0 32 32" x="0px" y="0px"><title>plus</title><path fill="#000000" d="M6.754 18.332v0c-0.53-0.001-1.029-0.206-1.405-0.581-0.378-0.377-0.584-0.878-0.582-1.41v-0.685c0.002-1.095 0.895-1.99 1.989-1.99h18.489c0.528 0 1.042 0.209 1.408 0.581l0.045 0.048c0.346 0.369 0.536 0.849 0.536 1.359l-0.002 0.688c-0.003 1.095-0.895 1.991-1.989 1.991h-18.488z"/><path fill="#000000" d="M18.332 25.246v0c-0.001 0.53-0.206 1.029-0.581 1.405-0.377 0.378-0.878 0.584-1.41 0.582h-0.685c-1.095-0.002-1.99-0.895-1.99-1.989v-18.49c0-0.528 0.209-1.042 0.581-1.408l0.048-0.045c0.369-0.346 0.849-0.536 1.359-0.536l0.688 0.002c1.095 0.003 1.991 0.895 1.991 1.989v18.489z"/></svg>