<svg xmlns="http://www.w3.org/2000/svg" xmlns:xlink="http://www.w3.org/1999/xlink" version="1.1" x="0px" y="0px" viewBox="0 0 468 585" style="enable-background:new 0 0 468 468;" xml:space="preserve"><g><g><path d="M194.777,299.943c-5.858-8.157-18.081-0.07-18.081-0.07s28.865-24.745,22.612-34.752    c-6.253-10.007-27.216,2.772-27.216,2.772s10.29-12.88,17.15-21.466c6.86-8.587,11.738-21.085-3.688-22.022    s-43.526,34.628-43.526,34.628s22.409-36.124,27.693-45.878c5.284-9.755,10.619-24.844,8.433-30.127    c-2.186-5.283-9.658-8.381-17.102,0.993s-25.865,35.514-31.429,44.329c-5.564,8.815-34.656,42.425-34.656,42.425    s4.445-12.574,6.629-22.43c2.184-9.856-4.348-20.803-11.464-23.393c-7.116-2.59-7.369,1.373-8.817,9.577    c-1.447,8.205,3.363,1.438-17.649,52.071c-21.012,50.634-3.176,77.926-3.176,77.926L36,468h88.592l10.821-80.563    c0,0,24.622-18.368,35.365-36.341S200.635,308.1,194.777,299.943z"/></g><g><path d="M379.78,152.376c16.168-44.435,17.425-84.244,17.425-84.244L432,0H331.921l-9.742,26.775c0,0-5.097,22.587-30.827,30.381    S253.758,74.672,246.03,85.9c-7.728,11.228-26.107,21.698-39.056,25.825c-12.949,4.126-15.306,9.821-8.647,16.614    c8.424,8.595,39.903,8.867,59.861-13.846c4.278-4.032,7.785-3.356,10.522,2.027c1.044,7.141-6.278,13.72-18.191,36.372    c-6.794,12.918-27.462,53.268-37.601,72.93c-2.929,5.68-0.199,12.635,5.81,14.823l0,0c5.1,1.857,10.778-0.432,13.161-5.305    l31.692-64.827c0.971-1.986,3.285-2.919,5.363-2.162l0,0c2.344,0.854,3.483,3.507,2.486,5.792l-34.776,79.672    c-2.519,5.77,0.357,12.471,6.277,14.627h0c5.261,1.916,11.117-0.456,13.559-5.491l37.935-78.239    c1.016-2.095,3.453-3.082,5.642-2.285l0,0c2.429,0.884,3.633,3.613,2.648,6.001l-27.63,67.004    c-2.362,5.727,0.526,12.27,6.35,14.391h0c5.386,1.961,11.368-0.583,13.688-5.82l31.307-70.664c0.921-2.078,3.295-3.088,5.432-2.31    l0.034,0.012c2.217,0.807,3.379,3.241,2.611,5.47l-19.223,55.857c-1.781,5.174,0.539,11.043,5.572,13.198    c5.543,2.374,11.885-0.458,13.831-6.107c3.941-11.441,11.025-31.095,19.751-51.35C362.695,188.946,373.662,169.19,379.78,152.376z    "/></g></g><text x="0" y="483" fill="#000000" font-size="5px" font-weight="bold" font-family="'Helvetica Neue', Helvetica, Arial-Unicode, Arial, Sans-serif">Created by SBTS</text><text x="0" y="488" fill="#000000" font-size="5px" font-weight="bold" font-family="'Helvetica Neue', Helvetica, Arial-Unicode, Arial, Sans-serif">from the Noun Project</text></svg>