<svg xmlns="http://www.w3.org/2000/svg" data-name="Layer 1" viewBox="0 0 100 125" x="0px" y="0px"><title>heart n thumb</title><path d="M99.83,31.24C98.38,15.17,87,3.51,72.77,3.51a26.9,26.9,0,0,0-23,13.28A25.93,25.93,0,0,0,27.23,3.51C13,3.51,1.62,15.17.17,31.23,0.05,31.94-.42,35.68,1,41.77a45.19,45.19,0,0,0,13.85,23.1L49.7,96.49,85.14,64.87A45.19,45.19,0,0,0,99,41.77C100.42,35.68,99.95,31.95,99.83,31.24Z"/><text x="0" y="115" fill="#000000" font-size="5px" font-weight="bold" font-family="'Helvetica Neue', Helvetica, Arial-Unicode, Arial, Sans-serif">Created by i cons</text><text x="0" y="120" fill="#000000" font-size="5px" font-weight="bold" font-family="'Helvetica Neue', Helvetica, Arial-Unicode, Arial, Sans-serif">from the Noun Project</text></svg>