<svg xmlns="http://www.w3.org/2000/svg" xmlns:xlink="http://www.w3.org/1999/xlink" version="1.1" x="0px" y="0px" viewBox="0 0 100 125" style="enable-background:new 0 0 100 100;" xml:space="preserve"><path d="M80.2,19.8c-16.7-16.7-43.8-16.7-60.5,0c-16.7,16.7-16.7,43.8,0,60.5c16.7,16.7,43.8,16.7,60.5,0  C96.9,63.5,96.9,36.5,80.2,19.8z M25.7,74.3c-12.1-12.1-13.3-31-3.6-44.4c0.4-0.5,1.2-0.6,1.7-0.1l46.4,46.4  c0.5,0.5,0.4,1.3-0.1,1.7C56.7,87.6,37.8,86.4,25.7,74.3z M76.2,70.2L29.8,23.8c-0.5-0.5-0.4-1.3,0.1-1.7  c13.4-9.7,32.3-8.5,44.4,3.6c12.1,12.1,13.3,31,3.6,44.4C77.5,70.6,76.7,70.7,76.2,70.2z"/><text x="0" y="115" fill="#000000" font-size="5px" font-weight="bold" font-family="'Helvetica Neue', Helvetica, Arial-Unicode, Arial, Sans-serif">Created by Nubaia Karim Barsha</text><text x="0" y="120" fill="#000000" font-size="5px" font-weight="bold" font-family="'Helvetica Neue', Helvetica, Arial-Unicode, Arial, Sans-serif">from the Noun Project</text></svg>