<svg xmlns:x="http://ns.adobe.com/Extensibility/1.0/" xmlns:i="http://ns.adobe.com/AdobeIllustrator/10.0/" xmlns:graph="http://ns.adobe.com/Graphs/1.0/" xmlns="http://www.w3.org/2000/svg" xmlns:xlink="http://www.w3.org/1999/xlink" version="1.1" x="0px" y="0px" viewBox="0 0 100 125" style="enable-background:new 0 0 100 100;" xml:space="preserve"><metadata><sfw xmlns="http://ns.adobe.com/SaveForWeb/1.0/"><slices/><sliceSourceBounds bottomLeftOrigin="true" height="75.2" width="54.5" x="-42" y="-42.3"/></sfw></metadata><g><g><g><path d="M52.4,17.1l-2.5,2.2c0,0-4.4,2.2-5.6,3.4c-1.2,1.2-10.3,10.7-10.2,11.6c-0.3,1.4-0.4,2.8,1.1,3.8c0.3,0.2,1-0.2,1-0.2     c-0.4,0.6-0.6,1.4-0.5,2.3c0.1,0.7,0.4,1.4,0.8,2c0.4,0.6,0.9,0.9,1.4,1.1c0.5,0.1,1.3-0.1,1.3-0.2l-0.1-0.1     c-0.4,0.8-0.6,1.5-0.5,2.3c0.1,0.8,0.4,1.4,1,2c0.5,0.5,1.1,0.9,1.7,1c0.7,0.1,1.2,0,1.6-0.4c0,0-8.7,9.6-8.6,9.6     c-1.1,1.6-1,3.1,0.2,4.5c0.5,0.5,1.2,0.8,2.2,0.8c0.9,0,1.6-0.4,2.3-1.1C46.3,53.8,50.8,49,52.7,47l4-3.8     c0.9-0.9,1.6-1.9,2.3-3.2c0.6-1.1,1-2,1.2-2.8L61,33c0.5-2.5,1.4-6.6,1.4-6.6L52.4,17.1z"/></g></g><path d="M24,76.9c0,2.1-1.7,3.9-3.9,3.9c-2.1,0-3.9-1.7-3.9-3.9c0-2.1,1.7-3.9,3.9-3.9C22.3,73.1,24,74.8,24,76.9z"/><path d="M8,88c0,2.4,1.9,4.3,4.3,4.3s4.3-1.9,4.3-4.3s-1.9-4.3-4.3-4.3S8,85.6,8,88z M9.7,88c0-1.4,1.2-2.6,2.6-2.6   c1.4,0,2.6,1.2,2.6,2.6c0,1.4-1.2,2.6-2.6,2.6C10.8,90.6,9.7,89.4,9.7,88z"/><path d="M23.7,88c0,2.4,1.9,4.3,4.3,4.3c2.4,0,4.3-1.9,4.3-4.3s-1.9-4.3-4.3-4.3C25.7,83.7,23.7,85.6,23.7,88z M25.4,88   c0-1.4,1.2-2.6,2.6-2.6c1.4,0,2.6,1.2,2.6,2.6c0,1.4-1.2,2.6-2.6,2.6C26.6,90.6,25.4,89.4,25.4,88z"/></g><text x="0" y="115" fill="#000000" font-size="5px" font-weight="bold" font-family="'Helvetica Neue', Helvetica, Arial-Unicode, Arial, Sans-serif">Created by Hayashi Fumihiro</text><text x="0" y="120" fill="#000000" font-size="5px" font-weight="bold" font-family="'Helvetica Neue', Helvetica, Arial-Unicode, Arial, Sans-serif">from the Noun Project</text></svg>