<svg xmlns="http://www.w3.org/2000/svg" xmlns:xlink="http://www.w3.org/1999/xlink" version="1.1" x="0px" y="0px" viewBox="0 0 97.6 125" enable-background="new 0 0 97.6 100" xml:space="preserve"><path d="M63.883,26.798c-1.799,0-3.563,0.147-5.287,0.422C54.513,15.412,43.311,6.895,30.132,6.895C13.519,6.895,0,20.413,0,37.027  C0,53.644,13.519,67.16,30.132,67.16c0.409,0,0.805-0.045,1.209-0.061c0-0.002,0-0.004-0.001-0.004  c3.22,15.018,16.562,26.279,32.542,26.279c18.387,0,33.289-14.903,33.289-33.289C97.172,41.701,82.269,26.798,63.883,26.798z   M36.699,40.885c0.062-0.086,0.122-0.174,0.184-0.26C36.821,40.711,36.76,40.799,36.699,40.885z M38.113,39.018l-0.591-0.59  c-0.769-0.771-0.769-2.03,0-2.8l7.23-7.229c0.77-0.771,0.771-2.031,0-2.801l-3.188-3.188c-0.77-0.771-2.029-0.771-2.8,0l-7.23,7.229  c-0.771,0.771-2.031,0.771-2.8,0l-7.231-7.229c-0.769-0.77-2.029-0.77-2.8,0l-3.189,3.188c-0.77,0.771-0.77,2.031,0,2.801  l7.23,7.229c0.771,0.77,0.771,2.03,0,2.8l-7.23,7.229c-0.77,0.771-0.77,2.03,0,2.801l3.189,3.19c0.771,0.771,2.032,0.771,2.8,0  l7.231-7.231c0.769-0.77,2.029-0.77,2.8,0l2,1.999c-1.883,4.171-2.938,8.797-2.938,13.67c0,0.816,0.039,1.626,0.098,2.425  c-0.188,0.006-0.37,0.03-0.561,0.03c-14.068,0-25.511-11.444-25.511-25.514c0-14.067,11.443-25.512,25.511-25.512  c10.99,0,20.35,6.996,23.931,16.755c0.008-0.002,0.015-0.003,0.023-0.005C47.745,30.215,42.213,34.007,38.113,39.018z   M56.501,27.629c-0.128,0.029-0.258,0.058-0.385,0.089C56.243,27.688,56.373,27.659,56.501,27.629z M84.536,53.396  c-7.213,7.196-14.411,14.404-21.617,21.609c-0.699,0.699-1.393,1.408-2.103,2.098c-1.305,1.27-3.136,1.268-4.425-0.016  c-4.27-4.257-8.532-8.519-12.792-12.786c-1.358-1.359-1.858-2.978-1.265-4.833c0.606-1.906,1.98-2.984,3.94-3.251  c1.572-0.213,2.899,0.39,3.997,1.485c2.412,2.406,4.785,4.854,7.223,7.235c1.381,1.351,0.954,1.293,2.225,0.027  c6.075-6.058,12.145-12.128,18.205-18.204c1.236-1.239,2.704-1.708,4.396-1.396c2.186,0.401,3.721,2.318,3.731,5.055  C86.04,51.305,85.51,52.429,84.536,53.396z"/><text x="0" y="115" fill="#000000" font-size="5px" font-weight="bold" font-family="'Helvetica Neue', Helvetica, Arial-Unicode, Arial, Sans-serif">Created by Noël Rasendrason</text><text x="0" y="120" fill="#000000" font-size="5px" font-weight="bold" font-family="'Helvetica Neue', Helvetica, Arial-Unicode, Arial, Sans-serif">from the Noun Project</text></svg>