<svg xmlns="http://www.w3.org/2000/svg" data-name="Layer 1" viewBox="0 0 100 125" x="0px" y="0px"><title>105all</title><path d="M49.51,30.39a23.39,23.39,0,0,0-11,44V86.13a6,6,0,0,0,6,6h9.93a6,6,0,0,0,6-6V74.44a23.39,23.39,0,0,0-11-44Zm7,55.74a2,2,0,0,1-2,2H44.54a2,2,0,0,1-2-2v-11H56.47Zm1.76-15H51.51V56.89a2,2,0,0,0-4,0v14.2H40.78a19.39,19.39,0,1,1,17.45,0Z"/><path d="M97.27,55.14a2,2,0,0,0-2-2H82.34a2,2,0,0,0,0,4H95.27A2,2,0,0,0,97.27,55.14Z"/><path d="M2.73,55.14a2,2,0,0,0,2,2H17.66a2,2,0,0,0,0-4H4.73A2,2,0,0,0,2.73,55.14Z"/><path d="M28.55,33.69a2,2,0,0,0,0-2.83L19.4,21.72a2,2,0,0,0-2.83,2.83l9.15,9.15a2,2,0,0,0,2.83,0Z"/><path d="M83.43,21.72a2,2,0,0,0-2.83,0l-9.15,9.15a2,2,0,1,0,2.83,2.83l9.15-9.15A2,2,0,0,0,83.43,21.72Z"/><path d="M83.43,85.74l-9.15-9.15a2,2,0,0,0-2.83,2.83l9.15,9.15a2,2,0,0,0,2.83-2.83Z"/><path d="M28.55,76.59a2,2,0,0,0-2.83,0l-9.15,9.15a2,2,0,1,0,2.83,2.83l9.15-9.15A2,2,0,0,0,28.55,76.59Z"/><path d="M52,22.81V9.87a2,2,0,0,0-4,0V22.81a2,2,0,0,0,4,0Z"/><text x="0" y="115" fill="#000000" font-size="5px" font-weight="bold" font-family="'Helvetica Neue', Helvetica, Arial-Unicode, Arial, Sans-serif">Created by jai</text><text x="0" y="120" fill="#000000" font-size="5px" font-weight="bold" font-family="'Helvetica Neue', Helvetica, Arial-Unicode, Arial, Sans-serif">from the Noun Project</text></svg>