<svg xmlns="http://www.w3.org/2000/svg" xmlns:xlink="http://www.w3.org/1999/xlink" version="1.1" x="0px" y="0px" viewBox="0 0 66 82.5" enable-background="new 0 0 66 66" xml:space="preserve"><g><path d="M42.8,43c1-2,0.2-4.4-1.7-5.4C36,35,31.6,26.2,30.3,23c0-0.1-0.1-0.1-0.1-0.2c0.2,1.2,0.2,2.5-0.1,3.8   c-0.7,3.1-1.6,5.9-2.5,8.5c2.4,3.7,5.7,7.6,9.7,9.7C39.3,45.7,41.7,45,42.8,43z"/><path d="M29.7,49.7l-5.4-7.4c-0.8,1.3-1.5,2.5-2.4,3.6c-0.7,1-1.6,1.8-2.6,2.3l0.6,3.4c0.1,0.5,0.1,1.1,0.1,1.6l0.9,1.2l0.4,5.4   c0.2,2.8,2.7,4.9,5.3,4.6c2.8-0.2,4.8-2.6,4.6-5.3l-0.5-6.8C30.6,51.3,30.2,50.4,29.7,49.7z"/><path d="M18.1,47.7c1.1-0.5,2.1-1.3,2.9-2.4c3.7-4.9,6.3-11.1,8.2-19c1-4.3-1.7-8.6-6-9.6c-1.6-0.4-3.2-0.2-4.6,0.3   c-3.1-3.1-4.4-7.8-4.6-11.6c-0.1-2.2-2-3.9-4.2-3.8C7.6,1.7,5.9,3.5,6,5.7c0.3,7,3.1,13.2,7.5,17.4c-1.3,5.4-3.1,9.7-5.3,12.6   c-1.7,2.3-2,5.2-1,7.7l1.3,7.3L3.6,55c-2.1,1.8-2.3,5-0.5,7.1c1.8,2.1,5,2.3,7.1,0.5l7-6.1c1.3-1.2,1.9-2.9,1.6-4.6L18.1,47.7z"/><circle cx="40.6" cy="61.2" r="3.2"/><circle cx="57" cy="61.2" r="3.2"/><path d="M59.8,52.8h-1.3l-4.9-7.5H41l-3.4,7.5c-2.4,0-4.3,2-4.3,4.4v3.2c0,0.6,0.5,1.1,1.2,1.1h2c0-0.1,0-0.3,0-0.4   c0-2.3,1.9-4.2,4.2-4.2c2.3,0,4.2,1.9,4.2,4.2c0,0.1,0,0.3,0,0.4h8c0-0.1,0-0.3,0-0.4c0-2.3,1.9-4.2,4.2-4.2c2.3,0,4.2,1.9,4.2,4.2   c0,0.1,0,0.3,0,0.4H63c0.6,0,1.2-0.5,1.2-1.1v-3.2C64.1,54.8,62.2,52.8,59.8,52.8z M47.3,51.8h-8.1l2.5-5.5h5.7V51.8z M48.8,51.8   v-5.5h4.2l3.6,5.5H48.8z"/><circle cx="26.6" cy="9.7" r="6.8"/></g><text x="0" y="81" fill="#000000" font-size="5px" font-weight="bold" font-family="'Helvetica Neue', Helvetica, Arial-Unicode, Arial, Sans-serif">Created by ProSymbols</text><text x="0" y="86" fill="#000000" font-size="5px" font-weight="bold" font-family="'Helvetica Neue', Helvetica, Arial-Unicode, Arial, Sans-serif">from the Noun Project</text></svg>