<svg xmlns="http://www.w3.org/2000/svg" data-name="Layer 1" viewBox="0 0 128 160" x="0px" y="0px"><title>miscellaneous 57 FINAL</title><path d="M29,0H0V29H29ZM25,25H4V4H25Z"/><path d="M11.36719,19.88623a1.99942,1.99942,0,0,0,2.88281,0l7.69141-8a1.99982,1.99982,0,1,0-2.88281-2.77246l-6.25,6.50049L9.94141,12.63232a1.99982,1.99982,0,1,0-2.88281,2.77246Z"/><path d="M29,33H0V62H29ZM25,58H4V37H25Z"/><path d="M11.36719,52.88623a1.99942,1.99942,0,0,0,2.88281,0l7.69141-8a1.99982,1.99982,0,1,0-2.88281-2.77246l-6.25,6.50049L9.94141,45.63232a1.99982,1.99982,0,1,0-2.88281,2.77246Z"/><path d="M29,66H0V95H29ZM25,91H4V70H25Z"/><path d="M11.36719,85.88623a1.99942,1.99942,0,0,0,2.88281,0l7.69141-8a1.99982,1.99982,0,1,0-2.88281-2.77246l-6.25,6.50049L9.94141,78.63232a1.99982,1.99982,0,1,0-2.88281,2.77246Z"/><path d="M29,99H0v29H29Zm-4,25H4V103H25Z"/><path d="M11.36719,118.88623a1.99942,1.99942,0,0,0,2.88281,0l7.69141-8a1.99982,1.99982,0,1,0-2.88281-2.77246l-6.25,6.50049-2.86719-2.98193a1.99982,1.99982,0,1,0-2.88281,2.77246Z"/><path d="M62,0H33V29H62ZM58,25H37V4H58Z"/><path d="M44.36719,19.88623a1.99942,1.99942,0,0,0,2.88281,0l7.69141-8a1.99982,1.99982,0,1,0-2.88281-2.77246l-6.25,6.50049-2.86719-2.98193a1.99982,1.99982,0,1,0-2.88281,2.77246Z"/><path d="M62,33H33V62H62ZM58,58H37V37H58Z"/><path d="M44.36719,52.88623a1.99942,1.99942,0,0,0,2.88281,0l7.69141-8a1.99982,1.99982,0,1,0-2.88281-2.77246l-6.25,6.50049-2.86719-2.98193a1.99982,1.99982,0,1,0-2.88281,2.77246Z"/><path d="M62,66H33V95H62ZM58,91H37V70H58Z"/><path d="M44.36719,85.88623a1.99942,1.99942,0,0,0,2.88281,0l7.69141-8a1.99982,1.99982,0,1,0-2.88281-2.77246l-6.25,6.50049-2.86719-2.98193a1.99982,1.99982,0,1,0-2.88281,2.77246Z"/><path d="M33,128H62V99H33Zm4-25H58v21H37Z"/><path d="M52.05859,108.11377l-6.25,6.50049-2.86719-2.98193a1.99982,1.99982,0,1,0-2.88281,2.77246l4.30859,4.48145a1.99942,1.99942,0,0,0,2.88281,0l7.69141-8a1.99982,1.99982,0,1,0-2.88281-2.77246Z"/><path d="M95,0H66V29H95ZM91,25H70V4H91Z"/><path d="M77.36719,19.88623a1.99942,1.99942,0,0,0,2.88281,0l7.69141-8a1.99982,1.99982,0,1,0-2.88281-2.77246l-6.25,6.50049-2.86719-2.98193a1.99982,1.99982,0,1,0-2.88281,2.77246Z"/><path d="M95,33H66V62H95ZM91,58H70V37H91Z"/><path d="M77.36719,52.88623a1.99942,1.99942,0,0,0,2.88281,0l7.69141-8a1.99982,1.99982,0,1,0-2.88281-2.77246l-6.25,6.50049-2.86719-2.98193a1.99982,1.99982,0,1,0-2.88281,2.77246Z"/><path d="M95,66H66V95H95ZM91,91H70V70H91Z"/><path d="M77.36719,85.88623a1.99942,1.99942,0,0,0,2.88281,0l7.69141-8a1.99982,1.99982,0,1,0-2.88281-2.77246l-6.25,6.50049-2.86719-2.98193a1.99982,1.99982,0,1,0-2.88281,2.77246Z"/><path d="M66,128H95V99H66Zm4-25H91v21H70Z"/><path d="M85.05859,108.11377l-6.25,6.50049-2.86719-2.98193a1.99982,1.99982,0,1,0-2.88281,2.77246l4.30859,4.48145a1.99942,1.99942,0,0,0,2.88281,0l7.69141-8a1.99982,1.99982,0,1,0-2.88281-2.77246Z"/><path d="M99,29h29V0H99Zm4-25h21V25H103Z"/><path d="M118.05859,9.11377l-6.25,6.50049-2.86719-2.98193a1.99982,1.99982,0,1,0-2.88281,2.77246l4.30859,4.48145a1.99942,1.99942,0,0,0,2.88281,0l7.69141-8a1.99982,1.99982,0,1,0-2.88281-2.77246Z"/><path d="M99,62h29V33H99Zm4-25h21V58H103Z"/><path d="M118.05859,42.11377l-6.25,6.50049-2.86719-2.98193a1.99982,1.99982,0,1,0-2.88281,2.77246l4.30859,4.48145a1.99942,1.99942,0,0,0,2.88281,0l7.69141-8a1.99982,1.99982,0,1,0-2.88281-2.77246Z"/><path d="M99,95h29V66H99Zm4-25h21V91H103Z"/><path d="M118.05859,75.11377l-6.25,6.50049-2.86719-2.98193a1.99982,1.99982,0,1,0-2.88281,2.77246l4.30859,4.48145a1.99942,1.99942,0,0,0,2.88281,0l7.69141-8a1.99982,1.99982,0,1,0-2.88281-2.77246Z"/><path d="M99,128h29V99H99Zm4-25h21v21H103Z"/><path d="M118.05859,108.11377l-6.25,6.50049-2.86719-2.98193a1.99982,1.99982,0,1,0-2.88281,2.77246l4.30859,4.48145a1.99942,1.99942,0,0,0,2.88281,0l7.69141-8a1.99982,1.99982,0,1,0-2.88281-2.77246Z"/><text x="0" y="143" fill="#000000" font-size="5px" font-weight="bold" font-family="'Helvetica Neue', Helvetica, Arial-Unicode, Arial, Sans-serif">Created by WEBTECHOPS LLP</text><text x="0" y="148" fill="#000000" font-size="5px" font-weight="bold" font-family="'Helvetica Neue', Helvetica, Arial-Unicode, Arial, Sans-serif">from the Noun Project</text></svg>