<svg xmlns="http://www.w3.org/2000/svg" xmlnsXlink="http://www.w3.org/1999/xlink" version="1.1" x="0px" y="0px" viewBox="0 0 100 100" style="enable-backgroundNew 0 0 100 100;" xmlSpace="preserve"><g><g><path d="M90.338,48.831c-0.037-0.182-0.075-0.329-0.08-0.348c-0.081-0.274-0.327-1.106-0.979-1.244    c-0.065-0.014-0.149-0.021-0.254-0.014H72.849c0.36,0.32,0.713,0.653,1.058,1h13.997c-0.253,0.499-0.423,1.113-0.423,1.603v12.943    h-6.921l-1,1h7.214l-4.938,4.938H68.81v-4.938h8.294l-1-1H68.81V49.828c0-0.456,0.257-1.173,0.538-1.503    c0.017-0.019,0.026-0.025,0.039-0.038c-0.27-0.202-0.542-0.398-0.817-0.586c-0.427,0.517-0.76,1.442-0.76,2.127v13.236l-5.79,5.79    c-0.046,0.046-0.083,0.102-0.109,0.163c-0.025,0.061-0.038,0.126-0.038,0.191v19.671c0,0.276,0.224,0.5,0.5,0.5h19.672    c0.065,0,0.13-0.013,0.191-0.038c0.062-0.025,0.117-0.062,0.163-0.109l5.936-5.936c0.046-0.046,0.083-0.102,0.109-0.163    c0.025-0.061,0.038-0.126,0.038-0.191V63.271V49.927h1.438c0.276,0,0.5-0.224,0.5-0.5C90.419,49.287,90.393,49.092,90.338,48.831z     M67.81,68.709h-4.23l4.23-4.23V68.709z M88.684,48.927c0.095-0.239,0.213-0.458,0.337-0.603c0.024-0.028,0.045-0.05,0.062-0.065    c0.048,0.067,0.128,0.209,0.211,0.489c0.001,0.003,0.02,0.077,0.042,0.179H88.684z"/><path d="M77.786,61.626l-2.932-2.932c-0.098-0.098-0.226-0.146-0.354-0.146s-0.256,0.049-0.354,0.146    c-0.195,0.195-0.195,0.512,0,0.707l3.831,3.83c0.046,0.046,0.102,0.083,0.163,0.109c0.061,0.025,0.126,0.038,0.191,0.038    s0.13-0.013,0.191-0.038c0.062-0.025,0.117-0.062,0.163-0.109l3.83-3.83c0.195-0.195,0.195-0.512,0-0.707    c-0.098-0.098-0.226-0.146-0.354-0.146s-0.256,0.049-0.354,0.146l-3.02,3.02c-0.886-17.595-21.595-20.72-21.809-20.75    c-0.023-0.003-0.046-0.005-0.068-0.005c-0.241,0-0.46,0.18-0.496,0.431c-0.038,0.273,0.152,0.526,0.426,0.564    C57.047,41.982,76.831,44.965,77.786,61.626z"/><path d="M43.019,36.211l-5.026-1.247c-0.05-0.012-5.054-1.243-7.553-5.402c-0.008-0.018-0.738-1.76,0.114-3.053    c0.686-1.04,2.212-1.567,4.541-1.567c0,0,6.45-0.035,9.154-0.035c2.436,0,3.674,1.255,3.733,1.317l8.529,8.529    c1.275,1.274,3.499,1.274,4.772,0c0.638-0.637,0.988-1.485,0.988-2.386c0-0.901-0.351-1.749-0.988-2.386L49.603,18.301    c-1.839-1.84-3.7-2.884-3.812-2.944l-8.867-4.107c-0.451-0.147-2.059-0.628-3.814-0.628c-1.278,0-2.354,0.256-3.168,0.747    l-18.295,9.42c-0.15,0.077-0.252,0.226-0.269,0.394L9.584,38.862c-0.012,0.107,0.013,0.215,0.068,0.308    c1.73,2.885,6.706,4.395,10.728,4.395c2.24,0,4.14-0.428,5.49-1.239c0.901-0.54,2.183-0.814,3.81-0.814    c4.042,0,8.815,1.702,8.911,1.734l2.514,0.629c0.315,0.079,0.639,0.119,0.961,0.119c1.813,0,3.389-1.23,3.83-2.992    c0.256-1.024,0.099-2.086-0.444-2.991S44.046,36.468,43.019,36.211z M44.925,40.759c-0.388,1.549-2.011,2.538-3.578,2.146    l-2.465-0.614c-0.202-0.073-4.982-1.779-9.202-1.779c-1.811,0-3.266,0.322-4.323,0.957c-1.179,0.707-2.946,1.096-4.977,1.096    c-3.673,0-8.166-1.295-9.784-3.772l1.75-17.241l18.082-9.312c0.687-0.411,1.589-0.62,2.683-0.62c1.649,0,3.208,0.482,3.465,0.562    l8.764,4.064c0.018,0.01,1.822,1.024,3.558,2.761l11.682,11.681c0.448,0.449,0.695,1.045,0.695,1.679    c0,0.634-0.247,1.23-0.695,1.679c-0.897,0.896-2.463,0.896-3.358,0l-8.52-8.519c-0.062-0.066-1.562-1.62-4.45-1.62    c-2.706,0-9.16,0.035-9.157,0.035c-2.688,0-4.498,0.681-5.378,2.024c-1.146,1.749-0.231,3.903-0.162,4.052    c2.744,4.575,7.987,5.866,8.204,5.917l5.022,1.246c0.765,0.191,1.408,0.669,1.814,1.345    C44.999,39.202,45.116,39.995,44.925,40.759z"/><path d="M55.806,35.544l-8.541-8.541c-0.041-0.041-1.024-1.012-3.015-1.012c-0.351,0-0.768,0.001-1.223,0.002    c-2.516,1.635-4.183,4.466-4.183,7.689c0,0.187,0.017,0.37,0.028,0.554l4.39,1.089c1.284,0.321,2.366,1.122,3.047,2.256    c0.68,1.133,0.878,2.464,0.557,3.748c-0.123,0.491-0.326,0.941-0.577,1.357c0.56,0.107,1.136,0.168,1.726,0.168    c4.17,0,7.683-2.785,8.798-6.595C56.445,36.064,56.097,35.836,55.806,35.544z"/></g></g><g style="" display="none"></g></svg>