<svg xmlns="http://www.w3.org/2000/svg" 
xmlnsXlink="http://www.w3.org/1999/xlink" 
version="1.1" x="0px" y="0px" viewBox="0 0 125 125" 
style="enable-background:new 0 0 128 128;" 
xmlSpace="preserve">
<g>
<path d="M30.9638996,42.4501991C30.0077991,40.8163986,28.7539005,40,27.5,40s-2.5077991,0.8163986-3.4643993,2.4501991   L0.819336,82.0858994C-1.09375,85.3525009,0.457031,88,4.2831998,88H50.716301   c3.8261986,0,5.3769989-2.6474991,3.4643974-5.9141006L30.9638996,42.4501991z"/>
<path d="M127.1806946,82.0858994l-23.2167969-39.6357002C103.0077972,40.8163986,101.7538986,40,100.5,40   s-2.5077972,0.8163986-3.4644012,2.4501991l-23.216301,39.6357002C71.9063034,85.3525009,73.4570007,88,77.2832031,88h46.4330902   C127.5424957,88,129.0932922,85.3525009,127.1806946,82.0858994z"/>
<path d="M54,62h18c1.1044998,0,2-0.8955002,2-2s-0.8955002-2-2-2H54c-1.1044998,0-2,0.8955002-2,2S52.8955002,62,54,62z"/>
<path d="M74,68c0-1.1044998-0.8955002-2-2-2H54c-1.1044998,0-2,0.8955002-2,2s0.8955002,2,2,2h18   C73.1044998,70,74,69.1044998,74,68z"/>
</g>
</svg>