<svg xmlns="http://www.w3.org/2000/svg" 
xmlns:xlink="http://www.w3.org/1999/xlink" 
version="1.1" x="0px" y="0px" viewBox="0 0 100 100" 
enable-background="new 0 0 100 100" xml:space="preserve">
<path d="M25.169,56.384c1.594,0.66,3.423-0.097,4.083-1.691l9.806-23.674L40,31.25L38.75,65h2.5v26.027  c0,2.194,1.779,3.973,3.973,3.973h0.179c2.194,0,3.973-1.779,3.973-3.973V65h1.25v26.027c0,2.194,1.779,3.973,3.973,3.973h0.179  c2.194,0,3.973-1.779,3.973-3.973V65h2.5L60,31.25l0.941-0.231l9.806,23.674c0.66,1.594,2.489,2.352,4.083,1.691  c1.595-0.66,2.352-2.489,1.691-4.083L65.759,26.317c-0.316-0.748-0.774-1.421-1.339-1.987c-0.566-0.565-1.239-1.023-1.987-1.339  S60.863,22.5,60,22.5H40c-0.863,0-1.685,0.175-2.433,0.491s-1.421,0.774-1.987,1.339c-0.565,0.565-1.023,1.239-1.339,1.987  L23.478,52.301C22.818,53.896,23.575,55.724,25.169,56.384z"/><path d="M50,21.25c4.002,0,7.84-1.59,10.669-4.419l0.581-0.581c-1.726,0-3.125-1.399-3.125-3.125C58.125,8.638,54.487,5,50,5  s-8.125,3.638-8.125,8.125S45.513,21.25,50,21.25z"/></svg>