<svg width="100pt" height="100pt" xmlns="http://www.w3.org/2000/svg" xmlnsXlink="http://www.w3.org/1999/xlink" xmlnsSerif="http://www.serif.com/" viewBox="20 10 60 60" version="1.1" xmlSpace="preserve" style="" x="0px" y="0px" fill-rule="evenodd" clip-rule="evenodd" stroke-linejoin="round" stroke-miterlimit="2"><rect serifId="51 - few" x="0" y="0" width="100" height="100" style="" fill="none"/><g><path d="M56.689,82.718c-3.691,-0 -6.689,-3.007 -6.689,-6.711c0,-3.703 2.998,-6.71 6.689,-6.71c3.692,-0 6.689,3.007 6.689,6.71c0,3.704 -2.997,6.711 -6.689,6.711Zm0,-0.399c3.473,0 6.292,-2.828 6.292,-6.312c0,-3.483 -2.819,-6.312 -6.292,-6.312c-3.472,0 -6.291,2.829 -6.291,6.312c-0,3.484 2.819,6.312 6.291,6.312Z"/><path d="M35.727,49.53c-2.031,0 -3.68,-1.654 -3.68,-3.692c-0,-2.038 1.649,-3.693 3.68,-3.693c2.032,0 3.681,1.655 3.681,3.693c-0,2.038 -1.649,3.692 -3.681,3.692Zm0,-0.398c1.813,-0 3.284,-1.476 3.284,-3.294c-0,-1.818 -1.471,-3.294 -3.284,-3.294c-1.812,-0 -3.283,1.476 -3.283,3.294c-0,1.818 1.471,3.294 3.283,3.294Z"/><path d="M55.059,67.857c-2.612,0 -4.732,-2.127 -4.732,-4.747c-0,-2.619 2.12,-4.746 4.732,-4.746c2.611,-0 4.731,2.127 4.731,4.746c0,2.62 -2.12,4.747 -4.731,4.747Zm-0,-0.398c2.392,-0 4.334,-1.949 4.334,-4.349c0,-2.4 -1.942,-4.348 -4.334,-4.348c-2.393,-0 -4.335,1.948 -4.335,4.348c-0,2.4 1.942,4.349 4.335,4.349Z"/><path d="M46.475,73.333c-2.125,0 -3.851,-1.731 -3.851,-3.864c-0,-2.132 1.726,-3.864 3.851,-3.864c2.126,0 3.852,1.732 3.852,3.864c-0,2.133 -1.726,3.864 -3.852,3.864Zm0,-0.398c1.907,-0 3.455,-1.553 3.455,-3.466c-0,-1.912 -1.548,-3.465 -3.455,-3.465c-1.906,-0 -3.454,1.553 -3.454,3.465c-0,1.913 1.548,3.466 3.454,3.466Z"/><path d="M76.472,83.477c-2.481,-0 -4.496,-2.022 -4.496,-4.511c-0,-2.49 2.015,-4.511 4.496,-4.511c2.482,-0 4.497,2.021 4.497,4.511c0,2.489 -2.015,4.511 -4.497,4.511Zm0,-0.399c2.263,0 4.1,-1.842 4.1,-4.112c0,-2.27 -1.837,-4.113 -4.1,-4.113c-2.262,-0 -4.099,1.843 -4.099,4.113c-0,2.27 1.837,4.112 4.099,4.112Z"/><path d="M71.954,74.679c-1.158,-0 -2.098,-0.943 -2.098,-2.105c-0,-1.161 0.94,-2.104 2.098,-2.104c1.157,-0 2.097,0.943 2.097,2.104c0,1.162 -0.94,2.105 -2.097,2.105Zm-0,-0.398c0.938,-0 1.7,-0.765 1.7,-1.707c0,-0.941 -0.762,-1.706 -1.7,-1.706c-0.939,0 -1.701,0.765 -1.701,1.706c-0,0.942 0.762,1.707 1.701,1.707Z"/><path d="M79.942,48.562c-1.82,-0 -3.298,-1.483 -3.298,-3.308c0,-1.826 1.478,-3.308 3.298,-3.308c1.819,0 3.297,1.482 3.297,3.308c-0,1.825 -1.478,3.308 -3.297,3.308Zm-0,-0.399c1.6,0 2.9,-1.303 2.9,-2.909c-0,-1.606 -1.3,-2.91 -2.9,-2.91c-1.601,0 -2.901,1.304 -2.901,2.91c0,1.606 1.3,2.909 2.901,2.909Z"/><path d="M89.687,48.562c-2.933,-0 -5.313,-2.389 -5.313,-5.331c-0,-2.942 2.38,-5.33 5.313,-5.33c2.932,0 5.313,2.388 5.313,5.33c0,2.942 -2.381,5.331 -5.313,5.331Zm-0,-0.399c2.713,0 4.916,-2.21 4.916,-4.932c0,-2.722 -2.203,-4.932 -4.916,-4.932c-2.713,0 -4.916,2.21 -4.916,4.932c-0,2.722 2.203,4.932 4.916,4.932Z"/><path d="M84.546,25.739c-3.075,0 -5.571,-2.504 -5.571,-5.589c-0,-3.085 2.496,-5.589 5.571,-5.589c3.074,0 5.571,2.504 5.571,5.589c-0,3.085 -2.497,5.589 -5.571,5.589Zm-0,-0.398c2.855,-0 5.174,-2.326 5.174,-5.191c-0,-2.865 -2.319,-5.191 -5.174,-5.191c-2.856,0 -5.174,2.326 -5.174,5.191c-0,2.865 2.318,5.191 5.174,5.191Z"/><path d="M78.882,41.344c-3.995,-0 -7.239,-3.255 -7.239,-7.263c-0,-4.008 3.244,-7.263 7.239,-7.263c3.996,0 7.239,3.255 7.239,7.263c0,4.008 -3.243,7.263 -7.239,7.263Zm0,-0.399c3.776,0 6.842,-3.076 6.842,-6.864c0,-3.789 -3.066,-6.864 -6.842,-6.864c-3.776,-0 -6.842,3.075 -6.842,6.864c-0,3.788 3.066,6.864 6.842,6.864Z"/><path d="M66.693,89.968c-2.764,-0 -5.008,-2.252 -5.008,-5.025c-0,-2.773 2.244,-5.024 5.008,-5.024c2.764,0 5.008,2.251 5.008,5.024c0,2.773 -2.244,5.025 -5.008,5.025Zm-0,-0.399c2.545,0 4.611,-2.073 4.611,-4.626c0,-2.553 -2.066,-4.626 -4.611,-4.626c-2.545,0 -4.611,2.073 -4.611,4.626c-0,2.553 2.066,4.626 4.611,4.626Z"/><path d="M67.072,67.719c-2.764,0 -5.008,-2.251 -5.008,-5.024c-0,-2.773 2.244,-5.024 5.008,-5.024c2.764,-0 5.008,2.251 5.008,5.024c0,2.773 -2.244,5.024 -5.008,5.024Zm-0,-0.398c2.545,-0 4.611,-2.073 4.611,-4.626c-0,-2.553 -2.066,-4.626 -4.611,-4.626c-2.545,0 -4.611,2.073 -4.611,4.626c-0,2.553 2.066,4.626 4.611,4.626Z"/><ellipse cx="63.451" cy="43.034" rx="5.008" ry="5.024"/><path d="M57.303,20.007c-2.764,-0 -5.009,-2.251 -5.009,-5.024c0,-2.773 2.245,-5.025 5.009,-5.025c2.764,0 5.008,2.252 5.008,5.025c-0,2.773 -2.244,5.024 -5.008,5.024Zm-0,-0.398c2.545,-0 4.611,-2.073 4.611,-4.626c-0,-2.553 -2.066,-4.626 -4.611,-4.626c-2.545,-0 -4.611,2.073 -4.611,4.626c-0,2.553 2.066,4.626 4.611,4.626Z"/><path d="M37.982,29.304c-2.764,-0 -5.008,-2.251 -5.008,-5.024c-0,-2.773 2.244,-5.025 5.008,-5.025c2.764,0 5.008,2.252 5.008,5.025c-0,2.773 -2.244,5.024 -5.008,5.024Zm-0,-0.398c2.545,-0 4.611,-2.073 4.611,-4.626c-0,-2.553 -2.066,-4.626 -4.611,-4.626c-2.545,-0 -4.611,2.073 -4.611,4.626c-0,2.553 2.066,4.626 4.611,4.626Z"/><path d="M90.22,14.888c-1.234,0 -2.235,-1.004 -2.235,-2.242c-0,-1.237 1.001,-2.242 2.235,-2.242c1.233,-0 2.235,1.005 2.235,2.242c-0,1.238 -1.002,2.242 -2.235,2.242Zm-0,-0.398c1.014,0 1.838,-0.826 1.838,-1.844c-0,-1.018 -0.824,-1.844 -1.838,-1.844c-1.015,0 -1.838,0.826 -1.838,1.844c-0,1.018 0.823,1.844 1.838,1.844Z"/><path d="M85.079,13.422c-1.082,0 -1.961,-0.881 -1.961,-1.966c0,-1.086 0.879,-1.967 1.961,-1.967c1.082,0 1.96,0.881 1.96,1.967c-0,1.085 -0.878,1.966 -1.96,1.966Zm-0,-0.398c0.862,0 1.563,-0.703 1.563,-1.568c-0,-0.866 -0.701,-1.568 -1.563,-1.568c-0.863,-0 -1.564,0.702 -1.564,1.568c0,0.865 0.701,1.568 1.564,1.568Z"/><path d="M85.887,95c-1.538,0 -2.786,-1.252 -2.786,-2.795c0,-1.542 1.248,-2.794 2.786,-2.794c1.537,-0 2.786,1.252 2.786,2.794c-0,1.543 -1.249,2.795 -2.786,2.795Zm-0,-0.398c1.318,-0 2.388,-1.074 2.388,-2.397c0,-1.322 -1.07,-2.396 -2.388,-2.396c-1.318,0 -2.389,1.074 -2.389,2.396c0,1.323 1.071,2.397 2.389,2.397Z"/><path d="M78.665,92.723c-2.069,-0 -3.749,-1.685 -3.749,-3.761c0,-2.075 1.68,-3.76 3.749,-3.76c2.069,-0 3.748,1.685 3.748,3.76c0,2.076 -1.679,3.761 -3.748,3.761Zm-0,-0.398c1.85,-0 3.351,-1.507 3.351,-3.363c0,-1.855 -1.501,-3.362 -3.351,-3.362c-1.85,0 -3.352,1.507 -3.352,3.362c0,1.856 1.502,3.363 3.352,3.363Z"/><path d="M88.707,88.376c-3.132,-0 -5.675,-2.551 -5.675,-5.693c0,-3.142 2.543,-5.693 5.675,-5.693c3.132,0 5.674,2.551 5.674,5.693c0,3.142 -2.542,5.693 -5.674,5.693Zm-0,-0.399c2.912,0 5.277,-2.372 5.277,-5.294c0,-2.922 -2.365,-5.294 -5.277,-5.294c-2.913,-0 -5.278,2.372 -5.278,5.294c0,2.922 2.365,5.294 5.278,5.294Z"/><path d="M84.133,76.438c-2.126,0 -3.852,-1.731 -3.852,-3.864c0,-2.132 1.726,-3.864 3.852,-3.864c2.126,0 3.852,1.732 3.852,3.864c-0,2.133 -1.726,3.864 -3.852,3.864Zm-0,-0.398c1.907,0 3.454,-1.553 3.454,-3.466c0,-1.912 -1.547,-3.465 -3.454,-3.465c-1.907,-0 -3.455,1.553 -3.455,3.465c0,1.913 1.548,3.466 3.455,3.466Z"/><path d="M76.644,70.685c-2.007,0 -3.636,-1.634 -3.636,-3.648c-0,-2.014 1.629,-3.648 3.636,-3.648c2.008,-0 3.637,1.634 3.637,3.648c0,2.014 -1.629,3.648 -3.637,3.648Zm0,-0.398c1.788,0 3.24,-1.456 3.24,-3.25c0,-1.794 -1.452,-3.25 -3.24,-3.25c-1.788,-0 -3.239,1.456 -3.239,3.25c-0,1.794 1.451,3.25 3.239,3.25Z"/><path d="M76.3,62.672c-1.817,0 -3.292,-1.48 -3.292,-3.303c-0,-1.823 1.475,-3.303 3.292,-3.303c1.818,-0 3.293,1.48 3.293,3.303c0,1.823 -1.475,3.303 -3.293,3.303Zm0,-0.398c1.599,0 2.896,-1.302 2.896,-2.905c0,-1.603 -1.297,-2.905 -2.896,-2.905c-1.598,0 -2.895,1.302 -2.895,2.905c-0,1.603 1.297,2.905 2.895,2.905Z"/><path d="M78.871,55.324c-1.537,-0 -2.785,-1.252 -2.785,-2.795c-0,-1.542 1.248,-2.794 2.785,-2.794c1.538,-0 2.786,1.252 2.786,2.794c-0,1.543 -1.248,2.795 -2.786,2.795Zm0,-0.398c1.318,-0 2.389,-1.074 2.389,-2.397c-0,-1.322 -1.071,-2.396 -2.389,-2.396c-1.318,0 -2.388,1.074 -2.388,2.396c-0,1.323 1.07,2.397 2.388,2.397Z"/><path d="M90.495,36.693c-0.854,0 -1.547,-0.695 -1.547,-1.552c-0,-0.857 0.693,-1.553 1.547,-1.553c0.854,0 1.548,0.696 1.548,1.553c-0,0.857 -0.694,1.552 -1.548,1.552Zm0,-0.398c0.635,-0 1.151,-0.517 1.151,-1.154c-0,-0.637 -0.516,-1.155 -1.151,-1.155c-0.635,0 -1.15,0.518 -1.15,1.155c-0,0.637 0.515,1.154 1.15,1.154Z"/><path d="M86.704,55.341c-1.647,0 -2.984,-1.341 -2.984,-2.993c0,-1.652 1.337,-2.993 2.984,-2.993c1.646,0 2.983,1.341 2.983,2.993c-0,1.652 -1.337,2.993 -2.983,2.993Zm-0,-0.398c1.427,-0 2.586,-1.163 2.586,-2.595c-0,-1.432 -1.159,-2.594 -2.586,-2.594c-1.428,-0 -2.587,1.162 -2.587,2.594c0,1.432 1.159,2.595 2.587,2.595Z"/><path d="M86.334,67.33c-2.961,0 -5.365,-2.411 -5.365,-5.382c-0,-2.97 2.404,-5.382 5.365,-5.382c2.961,0 5.365,2.412 5.365,5.382c-0,2.971 -2.404,5.382 -5.365,5.382Zm-0,-0.398c2.742,-0 4.968,-2.233 4.968,-4.984c-0,-2.75 -2.226,-4.984 -4.968,-4.984c-2.742,0 -4.968,2.234 -4.968,4.984c-0,2.751 2.226,4.984 4.968,4.984Z"/><path d="M68.365,79.25c-1.153,0 -2.089,-0.939 -2.089,-2.096c-0,-1.156 0.936,-2.095 2.089,-2.095c1.153,-0 2.089,0.939 2.089,2.095c-0,1.157 -0.936,2.096 -2.089,2.096Zm-0,-0.398c0.934,-0 1.692,-0.761 1.692,-1.698c-0,-0.936 -0.758,-1.697 -1.692,-1.697c-0.934,0 -1.692,0.761 -1.692,1.697c-0,0.937 0.758,1.698 1.692,1.698Z"/><path d="M66.276,72.936c-1.239,0 -2.244,-1.008 -2.244,-2.251c-0,-1.242 1.005,-2.251 2.244,-2.251c1.238,0 2.243,1.009 2.243,2.251c0,1.243 -1.005,2.251 -2.243,2.251Zm-0,-0.398c1.019,0 1.846,-0.83 1.846,-1.853c0,-1.022 -0.827,-1.852 -1.846,-1.852c-1.02,-0 -1.847,0.83 -1.847,1.852c-0,1.023 0.827,1.853 1.847,1.853Z"/><path d="M47.937,62.397c-1.319,-0 -2.39,-1.075 -2.39,-2.398c-0,-1.324 1.071,-2.398 2.39,-2.398c1.319,0 2.39,1.074 2.39,2.398c-0,1.323 -1.071,2.398 -2.39,2.398Zm-0,-0.399c1.1,0 1.993,-0.896 1.993,-1.999c-0,-1.104 -0.893,-2 -1.993,-2c-1.1,0 -1.993,0.896 -1.993,2c-0,1.103 0.893,1.999 1.993,1.999Z"/><path d="M44.096,64.881c-0.895,-0 -1.622,-0.73 -1.622,-1.628c-0,-0.898 0.727,-1.628 1.622,-1.628c0.896,0 1.623,0.73 1.623,1.628c-0,0.898 -0.727,1.628 -1.623,1.628Zm0,-0.399c0.677,0 1.226,-0.551 1.226,-1.229c-0,-0.679 -0.549,-1.229 -1.226,-1.229c-0.676,-0 -1.225,0.55 -1.225,1.229c-0,0.678 0.549,1.229 1.225,1.229Z"/><path d="M42.474,61.051c-1.417,-0 -2.567,-1.154 -2.567,-2.575c-0,-1.422 1.15,-2.576 2.567,-2.576c1.417,0 2.567,1.154 2.567,2.576c0,1.421 -1.15,2.575 -2.567,2.575Zm-0,-0.398c1.198,-0 2.17,-0.976 2.17,-2.177c-0,-1.202 -0.972,-2.177 -2.17,-2.177c-1.198,-0 -2.17,0.975 -2.17,2.177c-0,1.201 0.972,2.177 2.17,2.177Z"/><path d="M51.032,56.98c-2.458,-0 -4.454,-2.002 -4.454,-4.468c0,-2.466 1.996,-4.468 4.454,-4.468c2.458,0 4.453,2.002 4.453,4.468c0,2.466 -1.995,4.468 -4.453,4.468Zm-0,-0.399c2.239,0 4.056,-1.823 4.056,-4.069c0,-2.246 -1.817,-4.069 -4.056,-4.069c-2.239,-0 -4.056,1.823 -4.056,4.069c-0,2.246 1.817,4.069 4.056,4.069Z"/><path d="M42.577,53.633c-1.36,0 -2.464,-1.107 -2.464,-2.472c0,-1.364 1.104,-2.471 2.464,-2.471c1.36,-0 2.464,1.107 2.464,2.471c0,1.365 -1.104,2.472 -2.464,2.472Zm0,-0.398c1.141,-0 2.067,-0.929 2.067,-2.074c-0,-1.144 -0.926,-2.073 -2.067,-2.073c-1.141,-0 -2.067,0.929 -2.067,2.073c0,1.145 0.926,2.074 2.067,2.074Z"/><path d="M36.915,57.204c-1.652,0 -2.992,-1.345 -2.992,-3.001c-0,-1.657 1.34,-3.002 2.992,-3.002c1.651,0 2.992,1.345 2.992,3.002c-0,1.656 -1.341,3.001 -2.992,3.001Zm-0,-0.398c1.432,-0 2.595,-1.167 2.595,-2.603c-0,-1.437 -1.163,-2.604 -2.595,-2.604c-1.432,0 -2.595,1.167 -2.595,2.604c-0,1.436 1.163,2.603 2.595,2.603Z"/><path d="M45.041,47.458c-2.462,-0 -4.461,-2.006 -4.461,-4.475c0,-2.47 1.999,-4.475 4.461,-4.475c2.462,-0 4.461,2.005 4.461,4.475c-0,2.469 -1.999,4.475 -4.461,4.475Zm-0,-0.399c2.243,0 4.064,-1.826 4.064,-4.076c-0,-2.25 -1.821,-4.077 -4.064,-4.077c-2.243,-0 -4.064,1.827 -4.064,4.077c0,2.25 1.821,4.076 4.064,4.076Z"/><path d="M54.333,47.061c-1.404,-0 -2.544,-1.144 -2.544,-2.553c-0,-1.409 1.14,-2.553 2.544,-2.553c1.405,-0 2.545,1.144 2.545,2.553c0,1.409 -1.14,2.553 -2.545,2.553Zm0,-0.398c1.186,-0 2.148,-0.966 2.148,-2.155c0,-1.189 -0.962,-2.155 -2.148,-2.155c-1.185,0 -2.147,0.966 -2.147,2.155c-0,1.189 0.962,2.155 2.147,2.155Z"/><path d="M54.161,39.695c-2.571,-0 -4.659,-2.095 -4.659,-4.675c-0,-2.58 2.088,-4.675 4.659,-4.675c2.572,0 4.66,2.095 4.66,4.675c0,2.58 -2.088,4.675 -4.66,4.675Zm0,-0.399c2.353,0 4.263,-1.916 4.263,-4.276c0,-2.36 -1.91,-4.276 -4.263,-4.276c-2.352,-0 -4.262,1.916 -4.262,4.276c-0,2.36 1.91,4.276 4.262,4.276Z"/><path d="M59.337,30.345c-2.505,0 -4.539,-2.04 -4.539,-4.554c-0,-2.513 2.034,-4.554 4.539,-4.554c2.506,-0 4.54,2.041 4.54,4.554c-0,2.514 -2.034,4.554 -4.54,4.554Zm0,-0.398c2.287,-0 4.143,-1.862 4.143,-4.156c-0,-2.294 -1.856,-4.156 -4.143,-4.156c-2.286,0 -4.142,1.862 -4.142,4.156c-0,2.294 1.856,4.156 4.142,4.156Z"/><path d="M66.559,35.986c-1.964,0 -3.559,-1.6 -3.559,-3.571c-0,-1.971 1.595,-3.571 3.559,-3.571c1.965,0 3.56,1.6 3.56,3.571c-0,1.971 -1.595,3.571 -3.56,3.571Zm0,-0.398c1.746,-0 3.163,-1.422 3.163,-3.173c-0,-1.751 -1.417,-3.172 -3.163,-3.172c-1.745,-0 -3.162,1.421 -3.162,3.172c-0,1.751 1.417,3.173 3.162,3.173Z"/><path d="M70.428,28.689c-1.623,0 -2.94,-1.322 -2.94,-2.95c-0,-1.628 1.317,-2.95 2.94,-2.95c1.623,0 2.941,1.322 2.941,2.95c-0,1.628 -1.318,2.95 -2.941,2.95Zm0,-0.398c1.404,-0 2.544,-1.144 2.544,-2.552c-0,-1.408 -1.14,-2.551 -2.544,-2.551c-1.403,-0 -2.543,1.143 -2.543,2.551c-0,1.408 1.14,2.552 2.543,2.552Z"/><path d="M75.277,23.514c-1.252,-0 -2.269,-1.02 -2.269,-2.277c-0,-1.257 1.017,-2.277 2.269,-2.277c1.253,-0 2.27,1.02 2.27,2.277c0,1.257 -1.017,2.277 -2.27,2.277Zm0,-0.398c1.034,-0 1.873,-0.842 1.873,-1.879c0,-1.037 -0.839,-1.879 -1.873,-1.879c-1.033,0 -1.872,0.842 -1.872,1.879c-0,1.037 0.839,1.879 1.872,1.879Z"/><path d="M68.233,22.272c-2.234,-0 -4.047,-1.819 -4.047,-4.059c0,-2.241 1.813,-4.06 4.047,-4.06c2.233,0 4.046,1.819 4.046,4.06c-0,2.24 -1.813,4.059 -4.046,4.059Zm-0,-0.398c2.014,-0 3.649,-1.641 3.649,-3.661c-0,-2.021 -1.635,-3.661 -3.649,-3.661c-2.014,-0 -3.65,1.64 -3.65,3.661c0,2.02 1.636,3.661 3.65,3.661Z"/><path d="M77.263,15.13c-2.235,0 -4.049,-1.82 -4.049,-4.062c-0,-2.243 1.814,-4.063 4.049,-4.063c2.235,0 4.05,1.82 4.05,4.063c0,2.242 -1.815,4.062 -4.05,4.062Zm0,-0.398c2.016,0 3.653,-1.642 3.653,-3.664c0,-2.023 -1.637,-3.665 -3.653,-3.665c-2.016,0 -3.652,1.642 -3.652,3.665c-0,2.022 1.636,3.664 3.652,3.664Z"/><path d="M59.589,8.816c-1.05,0 -1.902,-0.855 -1.902,-1.908c-0,-1.053 0.852,-1.908 1.902,-1.908c1.05,0 1.902,0.855 1.902,1.908c-0,1.053 -0.852,1.908 -1.902,1.908Zm-0,-0.398c0.83,0 1.505,-0.677 1.505,-1.51c-0,-0.833 -0.675,-1.51 -1.505,-1.51c-0.831,0 -1.505,0.677 -1.505,1.51c-0,0.833 0.674,1.51 1.505,1.51Z"/><path d="M65.76,12.284c-1.78,-0 -3.224,-1.45 -3.224,-3.235c-0,-1.785 1.444,-3.234 3.224,-3.234c1.779,0 3.224,1.449 3.224,3.234c-0,1.785 -1.445,3.235 -3.224,3.235Zm-0,-0.399c1.56,0 2.827,-1.27 2.827,-2.836c-0,-1.565 -1.267,-2.836 -2.827,-2.836c-1.56,0 -2.827,1.271 -2.827,2.836c-0,1.566 1.267,2.836 2.827,2.836Z"/><path d="M13.985,19.753c-2.824,0 -5.116,-2.299 -5.116,-5.132c0,-2.832 2.292,-5.132 5.116,-5.132c2.823,0 5.115,2.3 5.115,5.132c0,2.833 -2.292,5.132 -5.115,5.132Zm-0,-0.398c2.604,-0 4.718,-2.121 4.718,-4.734c0,-2.612 -2.114,-4.734 -4.718,-4.734c-2.605,0 -4.719,2.122 -4.719,4.734c0,2.613 2.114,4.734 4.719,4.734Z"/><path d="M22.574,13.716c-0.921,-0 -1.668,-0.75 -1.668,-1.674c-0,-0.923 0.747,-1.673 1.668,-1.673c0.92,0 1.668,0.75 1.668,1.673c-0,0.924 -0.748,1.674 -1.668,1.674Zm-0,-0.399c0.701,0 1.271,-0.571 1.271,-1.275c-0,-0.703 -0.57,-1.275 -1.271,-1.275c-0.702,0 -1.271,0.572 -1.271,1.275c-0,0.704 0.569,1.275 1.271,1.275Z"/><path d="M23.649,19.46c-1.277,0 -2.313,-1.039 -2.313,-2.32c-0,-1.28 1.036,-2.32 2.313,-2.32c1.276,-0 2.312,1.04 2.312,2.32c0,1.281 -1.036,2.32 -2.312,2.32Zm-0,-0.398c1.057,-0 1.915,-0.861 1.915,-1.922c0,-1.061 -0.858,-1.922 -1.915,-1.922c-1.058,0 -1.916,0.861 -1.916,1.922c-0,1.061 0.858,1.922 1.916,1.922Z"/><path d="M28.67,24.86c-1.59,-0 -2.881,-1.295 -2.881,-2.89c0,-1.595 1.291,-2.89 2.881,-2.89c1.589,0 2.88,1.295 2.88,2.89c-0,1.595 -1.291,2.89 -2.88,2.89Zm-0,-0.399c1.37,0 2.483,-1.116 2.483,-2.491c-0,-1.375 -1.113,-2.491 -2.483,-2.491c-1.371,-0 -2.484,1.116 -2.484,2.491c0,1.375 1.113,2.491 2.484,2.491Z"/><path d="M45.615,19.995c-2.391,-0 -4.333,-1.948 -4.333,-4.347c0,-2.4 1.942,-4.347 4.333,-4.347c2.392,-0 4.334,1.947 4.334,4.347c-0,2.399 -1.942,4.347 -4.334,4.347Zm0,-0.398c2.173,-0 3.937,-1.77 3.937,-3.949c-0,-2.18 -1.764,-3.949 -3.937,-3.949c-2.172,-0 -3.936,1.769 -3.936,3.949c0,2.179 1.764,3.949 3.936,3.949Z"/><path d="M43.088,9.8c-1.168,-0 -2.115,-0.951 -2.115,-2.122c-0,-1.171 0.947,-2.122 2.115,-2.122c1.167,0 2.115,0.951 2.115,2.122c-0,1.171 -0.948,2.122 -2.115,2.122Zm-0,-0.399c0.948,0 1.718,-0.772 1.718,-1.723c-0,-0.951 -0.77,-1.723 -1.718,-1.723c-0.948,-0 -1.718,0.772 -1.718,1.723c-0,0.951 0.77,1.723 1.718,1.723Z"/><path d="M48.994,30.5c-2.548,0 -4.617,-2.075 -4.617,-4.631c0,-2.557 2.069,-4.632 4.617,-4.632c2.549,-0 4.617,2.075 4.617,4.632c0,2.556 -2.068,4.631 -4.617,4.631Zm0,-0.398c2.329,0 4.22,-1.897 4.22,-4.233c0,-2.337 -1.891,-4.234 -4.22,-4.234c-2.329,0 -4.22,1.897 -4.22,4.234c0,2.336 1.891,4.233 4.22,4.233Z"/><path d="M45.203,35.589c-1.462,0 -2.648,-1.19 -2.648,-2.656c-0,-1.466 1.186,-2.657 2.648,-2.657c1.461,0 2.648,1.191 2.648,2.657c-0,1.466 -1.187,2.656 -2.648,2.656Zm-0,-0.398c1.242,-0 2.251,-1.012 2.251,-2.258c-0,-1.247 -1.009,-2.258 -2.251,-2.258c-1.243,-0 -2.251,1.011 -2.251,2.258c-0,1.246 1.008,2.258 2.251,2.258Z"/><path d="M36.932,40.247c-2.629,-0 -4.763,-2.141 -4.763,-4.778c-0,-2.638 2.134,-4.779 4.763,-4.779c2.629,0 4.763,2.141 4.763,4.779c-0,2.637 -2.134,4.778 -4.763,4.778Zm-0,-0.398c2.41,-0 4.366,-1.963 4.366,-4.38c-0,-2.418 -1.956,-4.38 -4.366,-4.38c-2.41,-0 -4.366,1.962 -4.366,4.38c-0,2.417 1.956,4.38 4.366,4.38Z"/><path d="M30.595,32.329c-1.286,-0 -2.33,-1.048 -2.33,-2.338c0,-1.29 1.044,-2.337 2.33,-2.337c1.286,-0 2.33,1.047 2.33,2.337c0,1.29 -1.044,2.338 -2.33,2.338Zm0,-0.398c1.067,-0 1.933,-0.869 1.933,-1.94c0,-1.07 -0.866,-1.939 -1.933,-1.939c-1.066,0 -1.933,0.869 -1.933,1.939c0,1.071 0.867,1.94 1.933,1.94Z"/><path d="M31.318,42.852c-0.717,-0 -1.299,-0.584 -1.299,-1.303c0,-0.718 0.582,-1.302 1.299,-1.302c0.716,-0 1.298,0.584 1.298,1.302c-0,0.719 -0.582,1.303 -1.298,1.303Zm-0,-0.398c0.497,-0 0.901,-0.406 0.901,-0.905c-0,-0.499 -0.404,-0.904 -0.901,-0.904c-0.498,0 -0.902,0.405 -0.902,0.904c0,0.499 0.404,0.905 0.902,0.905Z"/><path d="M26.546,49.166c-1.841,-0 -3.336,-1.5 -3.336,-3.347c-0,-1.847 1.495,-3.347 3.336,-3.347c1.841,0 3.336,1.5 3.336,3.347c-0,1.847 -1.495,3.347 -3.336,3.347Zm-0,-0.399c1.622,0 2.939,-1.321 2.939,-2.948c-0,-1.627 -1.317,-2.948 -2.939,-2.948c-1.622,-0 -2.939,1.321 -2.939,2.948c-0,1.627 1.317,2.948 2.939,2.948Z"/><path d="M29.117,56.514c-1.628,0 -2.949,-1.325 -2.949,-2.958c-0,-1.633 1.321,-2.959 2.949,-2.959c1.627,0 2.949,1.326 2.949,2.959c-0,1.633 -1.322,2.958 -2.949,2.958Zm-0,-0.398c1.408,-0 2.552,-1.147 2.552,-2.56c-0,-1.413 -1.144,-2.56 -2.552,-2.56c-1.409,-0 -2.552,1.147 -2.552,2.56c-0,1.413 1.143,2.56 2.552,2.56Z"/><path d="M32.16,61.879c-1.125,0 -2.038,-0.916 -2.038,-2.044c0,-1.128 0.913,-2.044 2.038,-2.044c1.125,-0 2.038,0.916 2.038,2.044c-0,1.128 -0.913,2.044 -2.038,2.044Zm0,-0.398c0.906,-0 1.641,-0.738 1.641,-1.646c-0,-0.909 -0.735,-1.646 -1.641,-1.646c-0.905,-0 -1.641,0.737 -1.641,1.646c0,0.908 0.736,1.646 1.641,1.646Z"/><path d="M37.104,69.366c-2.126,-0 -3.852,-1.732 -3.852,-3.864c0,-2.133 1.726,-3.864 3.852,-3.864c2.126,-0 3.851,1.731 3.851,3.864c0,2.132 -1.725,3.864 -3.851,3.864Zm-0,-0.399c1.906,0 3.454,-1.553 3.454,-3.465c0,-1.913 -1.548,-3.466 -3.454,-3.466c-1.907,-0 -3.455,1.553 -3.455,3.466c0,1.912 1.548,3.465 3.455,3.465Z"/><path d="M31.481,73.213c-1.357,-0 -2.459,-1.106 -2.459,-2.467c0,-1.361 1.102,-2.467 2.459,-2.467c1.357,0 2.459,1.106 2.459,2.467c-0,1.361 -1.102,2.467 -2.459,2.467Zm-0,-0.399c1.138,0 2.062,-0.927 2.062,-2.068c-0,-1.142 -0.924,-2.068 -2.062,-2.068c-1.138,-0 -2.062,0.926 -2.062,2.068c0,1.141 0.924,2.068 2.062,2.068Z"/><path d="M38.763,77.353c-2.026,-0 -3.671,-1.65 -3.671,-3.683c-0,-2.033 1.645,-3.683 3.671,-3.683c2.026,-0 3.671,1.65 3.671,3.683c0,2.033 -1.645,3.683 -3.671,3.683Zm0,-0.398c1.807,-0 3.274,-1.472 3.274,-3.285c0,-1.813 -1.467,-3.285 -3.274,-3.285c-1.807,0 -3.274,1.472 -3.274,3.285c0,1.813 1.467,3.285 3.274,3.285Z"/><path d="M44.816,79.682c-1.314,-0 -2.382,-1.071 -2.382,-2.39c0,-1.318 1.068,-2.389 2.382,-2.389c1.315,0 2.382,1.071 2.382,2.389c-0,1.319 -1.067,2.39 -2.382,2.39Zm0,-0.399c1.095,0 1.985,-0.892 1.985,-1.991c-0,-1.098 -0.89,-1.99 -1.985,-1.99c-1.095,-0 -1.984,0.892 -1.984,1.99c-0,1.099 0.889,1.991 1.984,1.991Z"/><path d="M70.016,39.695c-0.826,-0 -1.496,-0.673 -1.496,-1.501c-0,-0.828 0.67,-1.501 1.496,-1.501c0.825,0 1.496,0.673 1.496,1.501c-0,0.828 -0.671,1.501 -1.496,1.501Zm-0,-0.399c0.606,0 1.098,-0.494 1.098,-1.102c0,-0.608 -0.492,-1.102 -1.098,-1.102c-0.607,-0 -1.099,0.494 -1.099,1.102c-0,0.608 0.492,1.102 1.099,1.102Z"/><path d="M73.008,46.078c-1.424,-0 -2.58,-1.16 -2.58,-2.588c0,-1.428 1.156,-2.588 2.58,-2.588c1.423,0 2.579,1.16 2.579,2.588c-0,1.428 -1.156,2.588 -2.579,2.588Zm-0,-0.399c1.204,0 2.182,-0.981 2.182,-2.189c-0,-1.208 -0.978,-2.189 -2.182,-2.189c-1.205,-0 -2.183,0.981 -2.183,2.189c0,1.208 0.978,2.189 2.183,2.189Z"/><ellipse cx="70.454" cy="50.968" rx="4.359" ry="4.373"/><ellipse cx="61.16" cy="53.323" rx="4.264" ry="4.278"/><path d="M25.445,40.523c-2.524,-0 -4.573,-2.056 -4.573,-4.589c-0,-2.532 2.049,-4.588 4.573,-4.588c2.525,-0 4.574,2.056 4.574,4.588c0,2.533 -2.049,4.589 -4.574,4.589Zm0,-0.399c2.306,0 4.177,-1.877 4.177,-4.19c0,-2.312 -1.871,-4.19 -4.177,-4.19c-2.305,0 -4.176,1.878 -4.176,4.19c-0,2.313 1.871,4.19 4.176,4.19Z"/><path d="M17.664,35.865c-1.067,-0 -1.934,-0.87 -1.934,-1.94c0,-1.071 0.867,-1.941 1.934,-1.941c1.068,0 1.935,0.87 1.935,1.941c-0,1.07 -0.867,1.94 -1.935,1.94Zm0,-0.398c0.849,-0 1.538,-0.691 1.538,-1.542c-0,-0.852 -0.689,-1.543 -1.538,-1.543c-0.848,0 -1.537,0.691 -1.537,1.543c0,0.851 0.689,1.542 1.537,1.542Z"/><path d="M19.805,30.5c-3.036,0 -5.502,-2.473 -5.502,-5.52c-0,-3.047 2.466,-5.52 5.502,-5.52c3.037,-0 5.503,2.473 5.503,5.52c0,3.047 -2.466,5.52 -5.503,5.52Zm0,-0.398c2.818,0 5.106,-2.295 5.106,-5.122c-0,-2.827 -2.288,-5.122 -5.106,-5.122c-2.817,0 -5.105,2.295 -5.105,5.122c-0,2.827 2.288,5.122 5.105,5.122Z"/><path d="M8.895,27.999c-2.15,-0 -3.895,-1.751 -3.895,-3.907c0,-2.157 1.745,-3.908 3.895,-3.908c2.149,0 3.895,1.751 3.895,3.908c-0,2.156 -1.746,3.907 -3.895,3.907Zm-0,-0.398c1.93,-0 3.498,-1.573 3.498,-3.509c-0,-1.937 -1.568,-3.509 -3.498,-3.509c-1.931,-0 -3.498,1.572 -3.498,3.509c0,1.936 1.567,3.509 3.498,3.509Z"/><path d="M16.818,43.412c-1.459,0 -2.644,-1.188 -2.644,-2.652c0,-1.464 1.185,-2.652 2.644,-2.652c1.459,-0 2.643,1.188 2.643,2.652c0,1.464 -1.184,2.652 -2.643,2.652Zm-0,-0.398c1.24,-0 2.246,-1.01 2.246,-2.254c0,-1.244 -1.006,-2.254 -2.246,-2.254c-1.24,0 -2.247,1.01 -2.247,2.254c0,1.244 1.007,2.254 2.247,2.254Z"/><path d="M16.521,58.239c-3.692,0 -6.689,-3.007 -6.689,-6.71c0,-3.704 2.997,-6.711 6.689,-6.711c3.692,0 6.689,3.007 6.689,6.711c-0,3.703 -2.997,6.71 -6.689,6.71Zm0,-0.398c3.473,-0 6.292,-2.829 6.292,-6.312c-0,-3.484 -2.819,-6.312 -6.292,-6.312c-3.472,-0 -6.292,2.828 -6.292,6.312c0,3.483 2.82,6.312 6.292,6.312Z"/><path d="M8.68,60.982c-1.291,0 -2.339,-1.051 -2.339,-2.346c0,-1.295 1.048,-2.346 2.339,-2.346c1.291,-0 2.339,1.051 2.339,2.346c-0,1.295 -1.048,2.346 -2.339,2.346Zm0,-0.398c1.072,-0 1.942,-0.873 1.942,-1.948c-0,-1.075 -0.87,-1.948 -1.942,-1.948c-1.072,0 -1.942,0.873 -1.942,1.948c0,1.075 0.87,1.948 1.942,1.948Z"/><path d="M13.821,66.778c-1.736,0 -3.146,-1.414 -3.146,-3.157c-0,-1.742 1.41,-3.156 3.146,-3.156c1.737,-0 3.147,1.414 3.147,3.156c0,1.743 -1.41,3.157 -3.147,3.157Zm0,-0.398c1.518,-0 2.75,-1.236 2.75,-2.759c-0,-1.522 -1.232,-2.758 -2.75,-2.758c-1.517,-0 -2.749,1.236 -2.749,2.758c-0,1.523 1.232,2.759 2.749,2.759Z"/><path d="M14.896,70.694c-0.906,-0 -1.642,-0.738 -1.642,-1.647c0,-0.91 0.736,-1.648 1.642,-1.648c0.906,0 1.642,0.738 1.642,1.648c0,0.909 -0.736,1.647 -1.642,1.647Zm0,-0.398c0.687,-0 1.245,-0.56 1.245,-1.249c0,-0.69 -0.558,-1.249 -1.245,-1.249c-0.687,-0 -1.245,0.559 -1.245,1.249c0,0.689 0.558,1.249 1.245,1.249Z"/><path d="M19.805,77.249c-1.803,0 -3.267,-1.468 -3.267,-3.277c0,-1.809 1.464,-3.278 3.267,-3.278c1.804,-0 3.268,1.469 3.268,3.278c-0,1.809 -1.464,3.277 -3.268,3.277Zm0,-0.398c1.585,0 2.871,-1.29 2.871,-2.879c-0,-1.589 -1.286,-2.88 -2.871,-2.88c-1.584,0 -2.87,1.291 -2.87,2.88c0,1.589 1.286,2.879 2.87,2.879Z"/><path d="M26.494,76.732c-1.29,-0 -2.338,-1.051 -2.338,-2.346c-0,-1.295 1.048,-2.346 2.338,-2.346c1.291,-0 2.339,1.051 2.339,2.346c-0,1.295 -1.048,2.346 -2.339,2.346Zm0,-0.399c1.072,0 1.942,-0.872 1.942,-1.947c-0,-1.075 -0.87,-1.948 -1.942,-1.948c-1.071,0 -1.941,0.873 -1.941,1.948c-0,1.075 0.87,1.947 1.941,1.947Z"/><path d="M24.655,69.952c-3.123,0 -5.658,-2.543 -5.658,-5.675c0,-3.132 2.535,-5.676 5.658,-5.676c3.122,0 5.657,2.544 5.657,5.676c-0,3.132 -2.535,5.675 -5.657,5.675Zm-0,-0.398c2.903,0 5.26,-2.364 5.26,-5.277c-0,-2.913 -2.357,-5.277 -5.26,-5.277c-2.904,-0 -5.261,2.364 -5.261,5.277c0,2.913 2.357,5.277 5.261,5.277Z"/><path d="M31.223,82.2c-1.718,0 -3.112,-1.399 -3.112,-3.122c-0,-1.723 1.394,-3.123 3.112,-3.123c1.718,0 3.113,1.4 3.113,3.123c-0,1.723 -1.395,3.122 -3.113,3.122Zm0,-0.398c1.499,0 2.715,-1.221 2.715,-2.724c0,-1.504 -1.216,-2.724 -2.715,-2.724c-1.499,-0 -2.715,1.22 -2.715,2.724c-0,1.503 1.216,2.724 2.715,2.724Z"/><path d="M39.047,86.064c-1.974,0 -3.577,-1.608 -3.577,-3.588c0,-1.98 1.603,-3.588 3.577,-3.588c1.974,0 3.577,1.608 3.577,3.588c-0,1.98 -1.603,3.588 -3.577,3.588Zm-0,-0.398c1.755,-0 3.179,-1.429 3.179,-3.19c0,-1.76 -1.424,-3.19 -3.179,-3.19c-1.755,0 -3.18,1.43 -3.18,3.19c0,1.761 1.425,3.19 3.18,3.19Z"/><path d="M48.556,89.376c-2.135,0 -3.869,-1.739 -3.869,-3.881c-0,-2.142 1.734,-3.881 3.869,-3.881c2.135,-0 3.869,1.739 3.869,3.881c-0,2.142 -1.734,3.881 -3.869,3.881Zm-0,-0.398c1.916,0 3.472,-1.561 3.472,-3.483c-0,-1.922 -1.556,-3.483 -3.472,-3.483c-1.916,0 -3.472,1.561 -3.472,3.483c0,1.922 1.556,3.483 3.472,3.483Z"/><path d="M57.196,90.48c-1.523,0 -2.759,-1.24 -2.759,-2.768c-0,-1.528 1.236,-2.769 2.759,-2.769c1.524,0 2.76,1.241 2.76,2.769c0,1.528 -1.236,2.768 -2.76,2.768Zm0,-0.398c1.304,-0 2.363,-1.062 2.363,-2.37c0,-1.308 -1.059,-2.37 -2.363,-2.37c-1.303,-0 -2.362,1.062 -2.362,2.37c-0,1.308 1.059,2.37 2.362,2.37Z"/><path d="M30.114,94.12c-2.956,0 -5.356,-2.408 -5.356,-5.373c-0,-2.966 2.4,-5.374 5.356,-5.374c2.956,0 5.356,2.408 5.356,5.374c0,2.965 -2.4,5.373 -5.356,5.373Zm-0,-0.398c2.737,-0 4.959,-2.229 4.959,-4.975c0,-2.746 -2.222,-4.975 -4.959,-4.975c-2.737,-0 -4.959,2.229 -4.959,4.975c-0,2.746 2.222,4.975 4.959,4.975Z"/><path d="M22.978,84.322c-1.78,0 -3.224,-1.449 -3.224,-3.234c-0,-1.786 1.444,-3.235 3.224,-3.235c1.779,0 3.224,1.449 3.224,3.235c-0,1.785 -1.445,3.234 -3.224,3.234Zm-0,-0.398c1.56,-0 2.827,-1.271 2.827,-2.836c-0,-1.566 -1.267,-2.837 -2.827,-2.837c-1.561,0 -2.827,1.271 -2.827,2.837c-0,1.565 1.266,2.836 2.827,2.836Z"/><path d="M15.283,82.925c-1.537,-0 -2.786,-1.252 -2.786,-2.795c0,-1.542 1.249,-2.794 2.786,-2.794c1.537,-0 2.786,1.252 2.786,2.794c-0,1.543 -1.249,2.795 -2.786,2.795Zm0,-0.399c1.318,0 2.389,-1.073 2.389,-2.396c-0,-1.322 -1.071,-2.396 -2.389,-2.396c-1.318,-0 -2.389,1.074 -2.389,2.396c0,1.323 1.071,2.396 2.389,2.396Z"/><path d="M11.414,77.163c-1.708,0 -3.095,-1.391 -3.095,-3.105c-0,-1.714 1.387,-3.105 3.095,-3.105c1.708,-0 3.095,1.391 3.095,3.105c0,1.714 -1.387,3.105 -3.095,3.105Zm0,-0.398c1.489,-0 2.698,-1.213 2.698,-2.707c0,-1.494 -1.209,-2.707 -2.698,-2.707c-1.489,0 -2.698,1.213 -2.698,2.707c0,1.494 1.209,2.707 2.698,2.707Z"/><path d="M9.204,85.305c-1.21,0 -2.192,-0.985 -2.192,-2.199c0,-1.214 0.982,-2.199 2.192,-2.199c1.21,-0 2.193,0.985 2.193,2.199c-0,1.214 -0.983,2.199 -2.193,2.199Zm0,-0.398c0.991,-0 1.795,-0.807 1.795,-1.801c0,-0.994 -0.804,-1.801 -1.795,-1.801c-0.99,-0 -1.795,0.807 -1.795,1.801c0,0.994 0.805,1.801 1.795,1.801Z"/></g></svg>