<svg xmlns="http://www.w3.org/2000/svg" xmlnsXlink="http://www.w3.org/1999/xlink" version="1.1" x="0px" y="0px" viewBox="0 0 90 90" style="enable-backgroundNew 0 0 100 100;" xmlSpace="preserve"><path d="M33.43,10L10,33.43v33.13L33.43,90h33.13L90,66.57V33.43L66.57,10H33.43z M65.04,63.35c0,5.73-4.64,10.37-10.39,10.37h-3.27  c-0.92,0-2.18-0.11-3.59-0.62c-2.89-1.09-4.53-3.21-5.11-4.12L29.22,50.57c-0.26-0.34-0.38-0.71-0.38-1.11  c0-0.56,0.26-1.13,0.77-1.5c1.95-1.43,4.66-1,6.09,0.96l4.74,6.46l0.54,0.77c0.04,0,0.04,0,0.04,0c0.02,0,0.02,0,0.04,0  c6.2,0,11.24,5.04,11.24,11.24c0,0.36,0.28,0.62,0.62,0.62c0.36,0,0.64-0.26,0.64-0.62c0-6.9-5.6-12.5-12.5-12.5h-0.08V31.07  c0-0.7,0.28-1.33,0.75-1.79c0.47-0.47,1.09-0.73,1.79-0.73c1.41,0,2.54,1.13,2.54,2.52v16.73c0,0.34,0.3,0.64,0.64,0.64  s0.64-0.3,0.64-0.64V28.81c0-0.7,0.28-1.32,0.71-1.79c0.47-0.47,1.09-0.73,1.79-0.73c1.41,0,2.54,1.13,2.54,2.52v18.98  c0,0.34,0.3,0.64,0.64,0.64s0.64-0.3,0.64-0.64V31.63c0-0.71,0.28-1.33,0.73-1.8c0.47-0.45,1.09-0.73,1.8-0.73  c1.37,0,2.52,1.13,2.52,2.54v17.44c0,0.34,0.28,0.62,0.64,0.62c0.34,0,0.62-0.28,0.62-0.62V34.43c0-0.7,0.28-1.33,0.75-1.79  c0.47-0.47,1.11-0.75,1.79-0.75c1.41,0,2.54,1.17,2.54,2.54V63.35z"/></svg>