<svg xmlns="http://www.w3.org/2000/svg" xmlnsXlink="http://www.w3.org/1999/xlink" xmlnsSerif="http://www.serif.com/" 
viewBox="0 0 100 100" version="1.1" xmlSpace="preserve" style="" x="0px" y="0px" fill-rule="evenodd" clip-rule="evenodd" stroke-linejoin="round" stroke-miterlimit="2"><rect serifId="Page 73" x="0.932" y="0.555" width="100" height="100" style="" fill="none"/><g><path d="M50.932,5.555c-24.836,0 -45,20.164 -45,45c0,24.836 20.164,45 45,45c24.836,0 45,-20.164 45,-45c0,-24.836 -20.164,-45 -45,-45Zm0,5.08c22.033,0 39.92,17.887 39.92,39.92c0,22.033 -17.887,39.921 -39.92,39.921c-22.033,0 -39.921,-17.888 -39.921,-39.921c0,-22.033 17.888,-39.92 39.921,-39.92Z"/><circle cx="32.738" cy="31.912" r="5.288"/><circle cx="62.166" cy="31.912" r="5.288"/><path d="M24.851,63.418c3.028,-9.276 12.748,-14.129 22.601,-14.129c9.853,0 19.573,4.853 22.602,14.129c0.052,0.152 0.092,0.31 0.117,0.472c0.043,0.271 0.044,0.542 0.008,0.805c-0.063,0.459 -0.24,0.883 -0.501,1.241l-0.001,0.001c-0.26,0.358 -0.609,0.657 -1.027,0.858c-0.239,0.116 -0.497,0.198 -0.768,0.24c-0.161,0.026 -0.322,0.036 -0.481,0.033l-39.898,0c-0.159,0.003 -0.32,-0.007 -0.481,-0.033c-0.271,-0.042 -0.529,-0.124 -0.768,-0.24c-0.418,-0.201 -0.767,-0.5 -1.027,-0.858l-0.001,-0.001c-0.261,-0.358 -0.438,-0.782 -0.501,-1.241c-0.036,-0.263 -0.035,-0.534 0.008,-0.805c0.025,-0.162 0.065,-0.32 0.118,-0.472Zm38.165,-1.85c-3.325,-4.596 -9.488,-6.779 -15.564,-6.779c-6.076,0 -12.239,2.183 -15.564,6.779l31.128,0Z"/></g></svg>