<svg width="100pt" height="100pt" xmlns="http://www.w3.org/2000/svg" data-name="Layer 1" viewBox="0 0 90 90" x="0px" y="0px"><defs><style>.cls-1{fill-ruleEvenodd;}</style></defs><title>a</title><path class="cls-1" d="M18.341,64.122a.573.573,0,1,0,.572.574.573.573,0,0,0-.572-.574Zm0,3.37a2.8,2.8,0,1,1,2.8-2.8,2.8,2.8,0,0,1-2.8,2.8Zm73.8-38.256a3.375,3.375,0,0,0-5.475-3.824,1.1,1.1,0,0,1-.129.116L69.075,39.043a6.421,6.421,0,0,1-5.628,3.34H47.532a1.113,1.113,0,0,1,0-2.225H63.447a4.194,4.194,0,0,0,0-8.387h-14.6a1.113,1.113,0,0,1-.646-.2,17.718,17.718,0,0,0-20.48-.019l-9.556,7.69L29.662,58.9l1.92-1.461a7.532,7.532,0,0,1,4.636-1.591l31.325-.343a5.359,5.359,0,0,0,4.212-1.994l20.39-24.275ZM17.066,70.646,2.5,45.725,15.088,38.37,29.65,63.291Z"/></svg>