<svg xmlns="http://www.w3.org/2000/svg" data-name="Layer 1" 
viewBox="0 0 128 160" x="0px" y="0px">
<title>79 Web Icon Set 38 expanded</title>
<circle cx="76" cy="95.99998" r="2.99999" transform="translate(-46.17548 87.92845) rotate(-47.85275)"/>
<circle cx="41" cy="94.99998" r="2.99999" transform="translate(-56.94747 61.64896) rotate(-47.85232)"/>
<path d="M108.34668,89.51367c.95313-1.30176,1.73535-2.41406,2.28516-3.25684a8.21707,8.21707,0,0,0,.86621-1.80566,5.15789,5.15789,0,0,0,.26563-1.72461,3.82391,3.82391,0,0,0-.14453-1.21582,2.81933,2.81933,0,0,0-.58008-.04883,2.15649,2.15649,0,0,0-.2334.01172,5.98689,5.98689,0,0,0-.56934,3.04492,6.03368,6.03368,0,0,1-6,5.98438h-.1925A54.95637,54.95637,0,1,1,114,59c0,1.05682-.037,2.10492-.09619,3.14722a24.31835,24.31835,0,0,1,3.95465.73169C117.94226,61.59521,118,60.30457,118,59a59.07928,59.07928,0,1,0-15.16217,39.43854,25.32659,25.32659,0,0,1,1.627-3.24615A67.83091,67.83091,0,0,1,108.34668,89.51367Z"/>
<path d="M109.90228,62.0304C109.96143,61.02692,110,60.01807,110,59A51.08774,51.08774,0,1,0,99.062,90.50293H96a5.98339,5.98339,0,0,1-1.8866-.30725A46.897,46.897,0,0,1,61,105.94531V100a2,2,0,0,0-4,0v5.94928A47.05186,47.05186,0,0,1,12.05072,61H18a2,2,0,0,0,0-4H12.05072A47.05186,47.05186,0,0,1,57,12.05072V18a2,2,0,0,0,4,0V12.05072A47.05186,47.05186,0,0,1,105.94928,57H100a2,2,0,0,0,0,4h5.94592c-.025.51563-.05481,1.03009-.0932,1.54224A23.33382,23.33382,0,0,1,109.90228,62.0304Z"/>
<circle cx="96" cy="41.99998" r="2.99999" transform="translate(0.44026 84.99225) rotate(-47.85232)"/>
<circle cx="42" cy="21.99998" r="2.99999" transform="translate(-2.4949 38.37691) rotate(-47.85275)"/>
<circle cx="22" cy="75.99998" r="2.99999" transform="translate(-49.11096 41.31239) rotate(-47.85275)"/>
<circle cx="23" cy="40.99998" r="2.99999" transform="translate(-22.83212 30.5398) rotate(-47.85232)"/>
<circle cx="77" cy="22.99998" r="2.99999" transform="translate(8.27703 64.65515) rotate(-47.85232)"/>
<path d="M59,62a2.98989,2.98989,0,0,0,2-5.22144V27a2,2,0,0,0-4,0V55.33569L44.24121,46.67285a1.99976,1.99976,0,1,0-2.24707,3.30859l14.059,9.54565A2.99557,2.99557,0,0,0,59,62Z"/>
<path d="M114.66016,115.55078h-8.51367a2.0001,2.0001,0,0,0-2,2V126a2.0001,2.0001,0,0,0,2,2h8.51367a2.0001,2.0001,0,0,0,2-2v-8.44922A2.0001,2.0001,0,0,0,114.66016,115.55078Zm-2,8.44922h-4.51367v-4.44922h4.51367Z"/>
<path d="M119.99023,67.957A19.63253,19.63253,0,0,0,110.96094,66a17.27776,17.27776,0,0,0-8.84961,2.209,15.06034,15.06034,0,0,0-5.91309,6.46387A23.44475,23.44475,0,0,0,94.001,84.40234c-.001.02051-.001.08008-.001.10059a2.0001,2.0001,0,0,0,2,2h8.23633a2.03312,2.03312,0,0,0,2-2.02051,9.23007,9.23007,0,0,1,1.40625-5.4668,3.91507,3.91507,0,0,1,3.39648-1.55371,4.50912,4.50912,0,0,1,3.49219,1.26074,5.61706,5.61706,0,0,1,1.23242,4.00391,9.20649,9.20649,0,0,1-.48633,3.03613,12.25867,12.25867,0,0,1-1.29687,2.68164c-.58887.90234-1.41211,2.0752-2.43262,3.46777-1.49512,1.99609-2.72559,3.793-3.6543,5.34082a25.61963,25.61963,0,0,0-2.51367,5.998,28.81584,28.81584,0,0,0-1.03516,8.02148,2.0001,2.0001,0,0,0,2,2h8.11719a2.0001,2.0001,0,0,0,2-2,19.91576,19.91576,0,0,1,.749-5.75488,17.41653,17.41653,0,0,1,1.8457-4.21191,52.57654,52.57654,0,0,1,3.11523-4.32715c1.25391-1.623,2.25977-3.0293,2.98828-4.17676a19.32415,19.32415,0,0,0,2.00391-4.35937A18.33508,18.33508,0,0,0,128,82.72656a18.65275,18.65275,0,0,0-2.00879-8.90137A13.87608,13.87608,0,0,0,119.99023,67.957Zm3.373,19.24121a15.40554,15.40554,0,0,1-1.5791,3.458c-.66406,1.0459-1.59863,2.35059-2.7666,3.8623a56.23417,56.23417,0,0,0-3.34277,4.65137,21.329,21.329,0,0,0-2.29,5.18262,21.92621,21.92621,0,0,0-.85742,4.91992h-4.12109a22.7484,22.7484,0,0,1,.81348-4.90234,21.70073,21.70073,0,0,1,2.10254-5.05762c.85938-1.43164,2.0127-3.11426,3.43945-5.01855,1.0752-1.46777,1.93945-2.7002,2.56836-3.66309a16.24192,16.24192,0,0,0,1.72559-3.55566,13.259,13.259,0,0,0,.708-4.3877,9.461,9.461,0,0,0-2.30859-6.69531,8.38927,8.38927,0,0,0-6.416-2.53027,7.92174,7.92174,0,0,0-6.59082,3.14648,11.69527,11.69527,0,0,0-2.10059,5.89453H98.13574a17.85318,17.85318,0,0,1,1.64648-6.05371,10.98722,10.98722,0,0,1,4.35059-4.78906A13.35285,13.35285,0,0,1,110.96094,70a15.7088,15.7088,0,0,1,7.20117,1.51465,9.82163,9.82163,0,0,1,4.30469,4.20215A14.78786,14.78786,0,0,1,124,82.7666,14.32234,14.32234,0,0,1,123.36328,87.19824Z"/>
</svg>