<svg xmlns="http://www.w3.org/2000/svg" data-name="Layer 1" viewBox="0 0 128 128" x="0px" y="0px"><title>110 Web Icon Set 56 expanded</title><path d="M35,114h91a2,2,0,0,0,0-4h-6.42725A8.21117,8.21117,0,0,0,120,107.5c0-.16113-.00781-.32227-.02344-.48242a5.00014,5.00014,0,0,0-.99316-8.60742C118.99414,98.27441,119,98.1377,119,98a5.00123,5.00123,0,0,0-6.36816-4.80957A6.01172,6.01172,0,0,0,108,91a8.10344,8.10344,0,0,0-3,.56635V97c0-1.12109,1.31738-2,3-2a1.99956,1.99956,0,0,1,1.92285,1.45508,1.99987,1.99987,0,0,0,3.3916.82715A.92917.92917,0,0,1,114,97a1.00068,1.00068,0,0,1,1,1,.98913.98913,0,0,1-.29785.71,2.00037,2.00037,0,0,0,2.06348,3.32324A.70935.70935,0,0,1,117,102a1.00256,1.00256,0,0,1,.18555,1.9873,2.00006,2.00006,0,0,0-1.33105,2.99023A1.00224,1.00224,0,0,1,116,107.5a4.35834,4.35834,0,0,1-.905,2.5H101V82c0-.02185-.00574-.04205-.00641-.06372a1.98133,1.98133,0,0,0-.022-.21759c-.00842-.05914-.0155-.11816-.02893-.17554a1.9806,1.9806,0,0,0-.05988-.19287c-.02106-.06085-.041-.12152-.06763-.17957-.0257-.05621-.05774-.10974-.08905-.16406a1.98624,1.98624,0,0,0-.11218-.17865c-.01306-.01794-.02112-.0379-.03485-.05554l-14-18.00049a2.00055,2.00055,0,0,0-2.09351-.70557A1.98817,1.98817,0,0,0,84,62H76.74829c-.75116,1.39606-1.493,2.73834-2.20532,4H80.2627l-9.333,14H32.7373l9.333-14H53.26184c-.72632-1.25537-1.48407-2.59839-2.25024-4H41a1.99926,1.99926,0,0,0-1.66406.89063l-12,18A1.99985,1.99985,0,0,0,29,84h4v26H19.905A4.35834,4.35834,0,0,1,19,107.5a1.00224,1.00224,0,0,1,.14551-.52246,2.00006,2.00006,0,0,0-1.33105-2.99023A1.00256,1.00256,0,0,1,18,102a.70935.70935,0,0,1,.23438.0332A2.00037,2.00037,0,0,0,20.29785,98.71.98914.98914,0,0,1,20,98a1.00068,1.00068,0,0,1,1-1,.92917.92917,0,0,1,.68555.28223,1.99987,1.99987,0,0,0,3.3916-.82715A1.99956,1.99956,0,0,1,27,95a3.93525,3.93525,0,0,1,2,.50781V91.24316A8.32922,8.32922,0,0,0,27,91a6.01172,6.01172,0,0,0-4.63184,2.19043A5.00123,5.00123,0,0,0,16,98c0,.1377.00586.27441.0166.41016a5.00014,5.00014,0,0,0-.99316,8.60742c-.01562.16016-.02344.32129-.02344.48242a8.21117,8.21117,0,0,0,.42725,2.5H2a2,2,0,0,0,0,4Zm48-4V98h4v12ZM73.66406,83.10938,84.58636,66.726,97,82.6864V110H91V96a2.0001,2.0001,0,0,0-2-2H81a2.0001,2.0001,0,0,0-2,2v14H73V83.72382A1.99249,1.99249,0,0,0,73.66406,83.10938ZM37,84H69v26H37Z"/><path d="M57,91H49a2.0001,2.0001,0,0,0-2,2v8a2.0001,2.0001,0,0,0,2,2h8a2.0001,2.0001,0,0,0,2-2V93A2.0001,2.0001,0,0,0,57,91Zm-2,8H51V95h4Z"/><path d="M64,74h.02441a2.002,2.002,0,0,0,1.66895-.93652C66.40039,71.93848,83,45.38135,83,34.2793,83,23.47607,74.12109,14,64,14S45,23.47607,45,34.2793c0,12.5127,16.625,37.75684,17.333,38.8252A1.99923,1.99923,0,0,0,64,74Zm0-56c7.99023,0,15,7.60693,15,16.2793,0,7.40723-9.68359,25.0498-15.03418,33.95117C59.71875,61.44238,49,43.40381,49,34.2793,49,25.60693,56.00977,18,64,18Z"/><path d="M76,33A12,12,0,1,0,64,45,12.01344,12.01344,0,0,0,76,33ZM56,33a8,8,0,1,1,8,8A8.00917,8.00917,0,0,1,56,33Z"/><path d="M62.77246,29.68359q.25049-.0249.56738-.02441a1.96645,1.96645,0,0,1,1.11914.28271.94051.94051,0,0,1,.418.83154,1.02982,1.02982,0,0,1-.2002.63818,1.61276,1.61276,0,0,1-.52637.44385,3.12971,3.12971,0,0,1-.74316.28271,6.34334,6.34334,0,0,1-.85156.15332v3.03662q.334.04834.67578.08057c.22852.022.44336.03223.64355.03223.18945,0,.40039-.01025.63477-.03223q.3501-.03223.71777-.08057V33.8584a7.4768,7.4768,0,0,0,.752-.3877,3.926,3.926,0,0,0,.793-.61377,3.25886,3.25886,0,0,0,.63477-.9043A2.81275,2.81275,0,0,0,67.666,30.709a3.08786,3.08786,0,0,0-1.01855-2.45508,4.51548,4.51548,0,0,0-3.04-.88818q-.38379,0-.73437.03223-.35156.033-.71.09717a7.52447,7.52447,0,0,0-.752.17725q-.39258.11353-.86035.2749a3.2977,3.2977,0,0,0,.084.5249c.04395.18848.09473.37939.15039.57324s.11914.38232.19141.56543q.10986.27466.209.48438c.21191-.0752.40625-.13965.585-.19385q.2666-.08057.50879-.13721A3.78909,3.78909,0,0,1,62.77246,29.68359Z"/><path d="M65.24414,38.9458q.06738-.37134.10059-.71094c.02246-.22607.0332-.44629.0332-.66211,0-.21484-.01074-.436-.0332-.66211s-.05566-.46289-.10059-.71045q-.38379-.04834-.73437-.08105c-.23437-.021-.46289-.03223-.68555-.03223s-.4502.01123-.68457.03223q-.3501.033-.73437.08105-.06738.37134-.10059.71045c-.02246.22607-.0332.44727-.0332.66211,0,.21582.01074.436.0332.66211q.03369.33984.10059.71094.38379.06445.73438.09668c.23438.02148.46191.03223.68457.03223s.45117-.01074.68555-.03223Q64.85986,39.01025,65.24414,38.9458Z"/></svg>