<svg width="100pt" height="100pt" xmlns="http://www.w3.org/2000/svg" data-name="Layer 1" viewBox="0 0 128 128" x="0px" y="0px"><title>Miscellaneous 85 Expended</title><path d="M66.671,48.218H32.317a15.2,15.2,0,0,0,3.321-4.627,12.606,12.606,0,0,0-.244-10.405c-.666-1.378-1.862-3.465-3.367-4.043a1.976,1.976,0,0,0-2.1.457L14.552,45.267c-.42.428-7.73,7-8.917,8.288C2.6,56.858,0,61.159,0,66.214l.059,9.945C.059,86.372,7.047,95,15.319,95H41.8a7.336,7.336,0,0,0,6.224-11.208,7.331,7.331,0,0,0,3.552-10.7,7.333,7.333,0,0,0,3.845-10.183H66.671a7.348,7.348,0,0,0,0-14.7Zm0,10.7H32.924a2,2,0,1,0,0,4H48.91a3.348,3.348,0,0,1,0,6.7H32.924a2,2,0,1,0,0,4H45.357a3.348,3.348,0,0,1,0,6.7H32.924a2,2,0,1,0,0,4H41.8a3.348,3.348,0,0,1,0,6.7H15.319c-6,0-11.26-6.935-11.26-14.852L4,66.2c0-4.421,2.787-8.285,5.736-11.135.687-.664,1.382-1.273,2.054-1.821a68.7,68.7,0,0,0,5.619-5.179l13.837-14.1a8.549,8.549,0,0,1-.972,10.615l-2.716,2.8c-.987,1.019-2.611,2.2-1.7,3.814a2.389,2.389,0,0,0,2.365,1.021h38.45a3.348,3.348,0,0,1,0,6.7Z"/><path d="M88.748,66.248A4.417,4.417,0,0,0,91.18,67a4.225,4.225,0,0,0,.82-.086v-4.35a1.591,1.591,0,0,1-.314.161,1.434,1.434,0,0,1-1.314-.16,2.483,2.483,0,0,1-.739-2.972L92,54.053V45L86.591,57.663C85.27,60.752,86.238,64.6,88.748,66.248Z"/><path d="M120.78,30a14.009,14.009,0,0,1-4.634,3.043A8.054,8.054,0,0,1,124,41.127V73.495H100V41.127a8.169,8.169,0,0,1,.465-2.728,8.035,8.035,0,0,1,5.893-5.169,13.953,13.953,0,0,1-4.42-2.569A12.106,12.106,0,0,0,96.7,37.036a12.246,12.246,0,0,0-.7,4.091V75.518a2.022,2.022,0,0,0,1.2,1.852v29.079a6.132,6.132,0,0,0-3.2,5.483A5.855,5.855,0,0,0,99.6,118h3.2c.142,0,.274-.006.395-.016.127.01.262.016.4.016,3.533,0,6.4-3.175,6.4-7.077V77.541h4.2v28.908a6.132,6.132,0,0,0-3.2,5.483A5.855,5.855,0,0,0,116.6,118h3.2c.142,0,.274-.006.394-.016.127.01.262.016.4.016,3.533,0,6.4-3.175,6.4-7.077V77.541c0-.091-.021-.176-.026-.266A2.018,2.018,0,0,0,128,75.518V41.127A12.156,12.156,0,0,0,120.78,30ZM106,110.923c0,1.674-1.073,3.031-2.4,3.031h-4a2.079,2.079,0,0,1,0-4.046h1.6V77.541H106Zm17,0c0,1.674-1.073,3.031-2.4,3.031h-4a2.079,2.079,0,0,1,0-4.046h1.6V77.541H123Z"/><path d="M111,30a10,10,0,1,0-10-10A10.011,10.011,0,0,0,111,30Zm0-16a6,6,0,1,1-6,6A6.007,6.007,0,0,1,111,14Z"/><path d="M116.743,45.327a3,3,0,0,0,.151-1.319c-.38-2.874-3.326-1.163-4.105.354L105.422,58.7a9.016,9.016,0,0,0-1.391,4.6,5.711,5.711,0,0,0,3.465,4.54,5.4,5.4,0,0,0,5.559-.4,8.215,8.215,0,0,0,1.918-2.73l4.25-8.25c.6-1.161,1.131-2.751.157-3.621a2.05,2.05,0,0,0-2.526.1,5.987,5.987,0,0,0-1.557,2.226l-3.6,7.322c-.51,1.036-1.422,2.261-2.522,1.908a1.671,1.671,0,0,1-1-1.693,4.89,4.89,0,0,1,.686-1.981l7.277-14.04A9.038,9.038,0,0,0,116.743,45.327Z"/></svg>